<svg xmlns="http://www.w3.org/2000/svg" xmlns:xlink="http://www.w3.org/1999/xlink" width="589.861" height="418.922" viewBox="0 0 589.861 418.922">
    <defs>
        <clipPath id="clip-path">
            <rect id="Rectangle_254" data-name="Rectangle 254" width="448.361" height="336.4" fill="none"/>
        </clipPath>
    </defs>
    <g id="Group_833" data-name="Group 833" transform="translate(-70.139 -1183.639)">
        <g id="Group_787" data-name="Group 787" transform="translate(-32.473 1091.859)">
            <g id="Group_786" data-name="Group 786" transform="translate(102.611 174.302)" clip-path="url(#clip-path)">
                <g id="Group_785" data-name="Group 785" transform="translate(57.653 12.097)">
                    <g id="Group_772" data-name="Group 772" transform="translate(138.144)">
                        <g id="Group_760" data-name="Group 760" transform="translate(20.128 253.122)">
                            <path id="Path_997" data-name="Path 997" d="M607.484,685.433a2138,2138,0,0,1,14.407,232.274c.246,32.818.045,63.117-19.428,89.534l-.191,10.308H518.724l-.566-11.119c14.088-.316,26.787-.91,36.644-1.9,0,0-14.141-139.173-23.564-245.753l-.05-1.795c3.048-24.091,8.134-49.042,11-72.266l-.407.814h65.7Z" transform="translate(-518.158 -684.715)" fill="#fff" stroke="#699af1" stroke-linecap="round" stroke-miterlimit="10" stroke-width="4"/>
                        </g>
                        <g id="Group_762" data-name="Group 762" transform="translate(0 71.102)">
                            <g id="Group_761" data-name="Group 761">
                                <path id="Path_998" data-name="Path 998" d="M596.548,559.047c-3.357-17.713-.86-38.259-.669-56.286a102.67,102.67,0,0,0-.839-17.767l1.055-.286c8.554,0,46.148.758,74.6-9.2a67.755,67.755,0,0,0,16.822-11.113l6.973-9.751c-10.748-12.513-27.638-24.8-34.894-31.528,0,0-2.34,9.1-23.529,10.774-16.887,1.336-31.624-.535-36.674-.706-15.762-.534-28.211-1.9-46.928-3.934l.1.108c-6.568,6.151-17.3,8.844-26.617,6.289a26.639,26.639,0,0,1-13.8-9.06l.165.356s-7.29-.11-18.312-.022l-.669-.182a28.878,28.878,0,0,1-1.239,3.62,18.687,18.687,0,0,1-12.593,11.014l-.087,1.244.351,10.856a6.78,6.78,0,0,0,4.84,6.277c18.273,5.439,31.573,9.695,38.289,24.023,6.1,13.019,4.111,51.045,1.22,74.459l-.407.814h72.833" transform="translate(-479.422 -377.027)" fill="#ffbb67"/>
                                <path id="Path_999" data-name="Path 999" d="M620,387.455c18.717,2.034,31.167,3.4,46.928,3.933,16,.542,46.043,2.526,57.371-6.375,10.153-7.978-10.27-51.179-10.172-50.59" transform="translate(-546.954 -334.418)" fill="none" stroke="#699af1" stroke-linecap="round" stroke-miterlimit="10" stroke-width="4"/>
                                <path id="Path_1000" data-name="Path 1000" d="M674.723,480.581c12.248,13.229,15.168,32.571,14.976,50.6s-2.688,38.574.669,56.286" transform="translate(-573.241 -404.632)" fill="none" stroke="#699af1" stroke-linecap="round" stroke-miterlimit="10" stroke-width="4"/>
                            </g>
                            <line id="Line_14" data-name="Line 14" x2="72.833" transform="translate(44.294 182.834)" fill="none" stroke="#699af1" stroke-linecap="round" stroke-miterlimit="10" stroke-width="4"/>
                        </g>
                        <g id="Group_763" data-name="Group 763" transform="translate(56.266 575.648)">
                            <rect id="Rectangle_250" data-name="Rectangle 250" width="48.267" height="49.443" transform="translate(0 9.334)" fill="#f3f3f3"/>
                            <path id="Path_1001" data-name="Path 1001" d="M638.1,1435.083c.576.049,38.873.073,38.873.073h0a16.893,16.893,0,0,0-6.487-22.947c-5.13-2.883-10.733-6.076-15.312-8.7a18.751,18.751,0,0,1-6.932-6.905l-.429-.9a10.015,10.015,0,0,0-9.407-5.68c-3.885.211-6.308,3.958-9.125,6.641a24.1,24.1,0,0,1-13.22,6.251l-5.645.6c4.579,2.621,10.182,5.813,15.312,8.7a16.892,16.892,0,0,1,6.487,22.947h6.047" transform="translate(-598.615 -1346.053)" fill="#ec545d"/>
                            <path id="Path_1002" data-name="Path 1002" d="M649.678,1305.415c-.327,11.015-.729,29.245-.78,41.368a18.748,18.748,0,0,0,9.441,16.362c4.579,2.621,10.182,5.813,15.312,8.7a16.893,16.893,0,0,1,6.487,22.948H617.063q-.884,0-1.749-.074" transform="translate(-600.968 -1305.415)" fill="none" stroke="#222221" stroke-linecap="round" stroke-linejoin="round" stroke-width="1.51"/>
                            <path id="Path_1003" data-name="Path 1003" d="M609.118,1403.45a24.738,24.738,0,0,0,20.262-6.264c2.817-2.683,5.24-6.429,9.125-6.641a10.015,10.015,0,0,1,9.407,5.68" transform="translate(-597.992 -1346.304)" fill="none" stroke="#222221" stroke-linecap="round" stroke-linejoin="round" stroke-width="1.51"/>
                            <path id="Path_1004" data-name="Path 1004" d="M688.992,1379a20.091,20.091,0,0,1,1.078-6.825,9.464,9.464,0,0,1,4.375-5.187,4.069,4.069,0,0,1,2.509-.49,4.257,4.257,0,0,1,2.891,2.8,10.957,10.957,0,0,1,.152,7.058,25.967,25.967,0,0,1-3.106,6.46c-.907,1.464-6.438,6.9-6.438,6.9S688.959,1380.956,688.992,1379Z" transform="translate(-636.361 -1334.737)" fill="none" stroke="#222221" stroke-linecap="round" stroke-linejoin="round" stroke-width="1.51"/>
                            <path id="Path_1005" data-name="Path 1005" d="M699.975,1394.361a20.075,20.075,0,0,1,6.257-2.93,9.467,9.467,0,0,1,6.748.718,4.071,4.071,0,0,1,1.811,1.8,4.257,4.257,0,0,1-.7,3.96,10.956,10.956,0,0,1-5.762,4.08,25.958,25.958,0,0,1-7.091,1.046c-1.721.069-9.319-1.47-9.319-1.47S698.337,1395.429,699.975,1394.361Z" transform="translate(-637.77 -1346.589)" fill="none" stroke="#222221" stroke-linecap="round" stroke-linejoin="round" stroke-width="1.51"/>
                            <path id="Path_1006" data-name="Path 1006" d="M680.754,1414.653a10.9,10.9,0,0,1,5.582-2.635" transform="translate(-632.404 -1356.625)" fill="none" stroke="#222221" stroke-linecap="round" stroke-linejoin="round" stroke-width="1.51"/>
                            <path id="Path_1007" data-name="Path 1007" d="M693.892,1427.89l5.219-3.365" transform="translate(-638.716 -1362.634)" fill="none" stroke="#222221" stroke-linecap="round" stroke-linejoin="round" stroke-width="1.51"/>
                            <path id="Path_1008" data-name="Path 1008" d="M596.77,1325.647c.916,0,43.266,6.143,43.266,6.143l-.229-5.734Z" transform="translate(-592.06 -1315.134)" fill="#222221"/>
                        </g>
                        <g id="Group_764" data-name="Group 764" transform="translate(13.762 575.648)">
                            <rect id="Rectangle_251" data-name="Rectangle 251" width="44.386" height="49.443" transform="translate(0 9.334)" fill="#f3f3f3"/>
                            <path id="Path_1009" data-name="Path 1009" d="M557.181,1435.083c.577.049,38.873.073,38.873.073h0a16.892,16.892,0,0,0-6.487-22.947c-5.13-2.883-10.733-6.076-15.312-8.7a18.751,18.751,0,0,1-6.932-6.905l-.429-.9a10.015,10.015,0,0,0-9.407-5.68c-3.885.211-6.308,3.958-9.125,6.641a24.1,24.1,0,0,1-13.22,6.251l.4.6c4.579,2.621,10.182,5.813,15.313,8.7a16.892,16.892,0,0,1,6.486,22.947h0" transform="translate(-519.951 -1346.053)" fill="#ec545d"/>
                            <path id="Path_1010" data-name="Path 1010" d="M561.976,1305.415c-.327,11.015-.729,29.245-.78,41.368a18.748,18.748,0,0,0,9.441,16.362c4.579,2.621,10.182,5.813,15.312,8.7a16.892,16.892,0,0,1,6.487,22.948H529.361q-.884,0-1.749-.074" transform="translate(-516.334 -1305.415)" fill="none" stroke="#222221" stroke-linecap="round" stroke-linejoin="round" stroke-width="1.51"/>
                            <path id="Path_1011" data-name="Path 1011" d="M535.142,1403.438a24.1,24.1,0,0,0,13.22-6.251c2.817-2.683,5.24-6.429,9.125-6.641a10.015,10.015,0,0,1,9.407,5.68" transform="translate(-519.951 -1346.304)" fill="none" stroke="#222221" stroke-linecap="round" stroke-linejoin="round" stroke-width="1.51"/>
                            <path id="Path_1012" data-name="Path 1012" d="M593.843,1380.4a20.084,20.084,0,0,1-1.223-6.8,9.465,9.465,0,0,1,2.429-6.336,4.069,4.069,0,0,1,2.208-1.287,4.258,4.258,0,0,1,3.648,1.69,10.955,10.955,0,0,1,2.461,6.617,25.98,25.98,0,0,1-.812,7.121c-.376,1.682-3.817,8.628-3.817,8.628S594.454,1382.262,593.843,1380.4Z" transform="translate(-547.56 -1334.494)" fill="none" stroke="#222221" stroke-linecap="round" stroke-linejoin="round" stroke-width="1.51"/>
                            <path id="Path_1013" data-name="Path 1013" d="M609.759,1388.107a20.093,20.093,0,0,1,4.947-4.823,9.466,9.466,0,0,1,6.609-1.538,4.07,4.07,0,0,1,2.3,1.109,4.259,4.259,0,0,1,.643,3.969,10.954,10.954,0,0,1-4.1,5.745,25.983,25.983,0,0,1-6.354,3.317c-1.6.63-9.285,1.672-9.285,1.672S608.562,1389.654,609.759,1388.107Z" transform="translate(-553.279 -1342.028)" fill="none" stroke="#222221" stroke-linecap="round" stroke-linejoin="round" stroke-width="1.51"/>
                            <path id="Path_1014" data-name="Path 1014" d="M591.327,1414.981a37.318,37.318,0,0,0,7.216-3.84" transform="translate(-546.941 -1356.204)" fill="none" stroke="#222221" stroke-linecap="round" stroke-linejoin="round" stroke-width="1.51"/>
                            <path id="Path_1015" data-name="Path 1015" d="M605.417,1426.855l6.089-4.495" transform="translate(-553.71 -1361.594)" fill="none" stroke="#222221" stroke-linecap="round" stroke-linejoin="round" stroke-width="1.51"/>
                            <path id="Path_1016" data-name="Path 1016" d="M519.248,1325.727c.827,0,39.046,6.1,39.046,6.1l-.207-5.7Z" transform="translate(-512.316 -1315.173)" fill="#222221"/>
                        </g>
                        <path id="Path_1017" data-name="Path 1017" d="M721.764,258.5s-8.541,2.056-11.935.207l-.054-.029a4.123,4.123,0,0,1,1-7.466c2.617-.732,27.14-6.489,42.8-3.7,9.957,1.775,16.807,4.792,25.24,14.691,13.294,15.6,29.8,70.7,29.432,89.651-.357,18.439-14.527,31.577-27.684,38.087-14.568,7.209-52.337,10.333-77.293,10.333" transform="translate(-586.952 -221.202)" fill="none" stroke="#699af1" stroke-linecap="round" stroke-miterlimit="10" stroke-width="4"/>
                        <g id="Group_767" data-name="Group 767" transform="translate(113.502)">
                            <g id="Group_765" data-name="Group 765" transform="translate(20.394 13.72)">
                                <path id="Path_1018" data-name="Path 1018" d="M779.222,311.136c.909,1.818,1.413,3.372,2.306,5.2.759,1.553,2.577,5.154,8,3.8,5.278-1.32,8.462-2.442,13.954-4.262,3-.994,5.166-3.454,3.976-6.38l-3.263-5.62" transform="translate(-757.337 -262.36)" fill="#699af1" stroke="#699af1" stroke-miterlimit="10" stroke-width="1"/>
                                <path id="Path_1019" data-name="Path 1019" d="M769.826,236.573c.261.117-3.624-6.127-5.293-8.824-1.984-3.2-4.121-3.764-5.849-3.764-5.44,0-12.187.613-17.394,1.141a4.644,4.644,0,0,0-3.785,6.5l.827,1.631c-.05-.024.744,1.537,2.064,4.084" transform="translate(-737.105 -223.986)" fill="#699af1" stroke="#699af1" stroke-miterlimit="10" stroke-width="1"/>
                            </g>
                            <g id="Group_766" data-name="Group 766">
                                <path id="Path_1020" data-name="Path 1020" d="M697.856,238.1a31.789,31.789,0,0,0,9.729.97" transform="translate(-697.856 -217.045)" fill="none" stroke="#699af1" stroke-linecap="round" stroke-miterlimit="10" stroke-width="4"/>
                                <path id="Path_1021" data-name="Path 1021" d="M707.6,211.248l7.107,5.955" transform="translate(-702.538 -204.147)" fill="none" stroke="#699af1" stroke-linecap="round" stroke-miterlimit="10" stroke-width="4"/>
                                <path id="Path_1022" data-name="Path 1022" d="M735.639,209.009q-1.565-5.714-3.129-11.427" transform="translate(-714.503 -197.582)" fill="none" stroke="#699af1" stroke-linecap="round" stroke-miterlimit="10" stroke-width="4"/>
                            </g>
                        </g>
                        <g id="Group_768" data-name="Group 768" transform="translate(72.566 94.119)">
                            <path id="Path_1023" data-name="Path 1023" d="M654.474,378.713c1.526,9.295,9.988,26.389,16.266,33.411" transform="translate(-636.08 -378.713)" fill="none" stroke="#699af1" stroke-linecap="round" stroke-miterlimit="10" stroke-width="2"/>
                            <path id="Path_1024" data-name="Path 1024" d="M619.131,410.018c13.155,1.43,23.214,2.529,33.5,3.241l.675.15c-6.277-7.022-14.739-24.116-16.266-33.411l-.165,1.082a33.374,33.374,0,0,1-3.038,9.156c-3.187,6.154-8.65,9.3-14.766,10.374l.056.321v9.087" transform="translate(-619.075 -379.33)" fill="#699af1" stroke="#699af1" stroke-miterlimit="10" stroke-width="1"/>
                        </g>
                        <line id="Line_15" data-name="Line 15" x2="83.547" transform="translate(21.237 585.956)" fill="none" stroke="#222221" stroke-linecap="round" stroke-linejoin="round" stroke-width="1.51"/>
                        <path id="Path_1025" data-name="Path 1025" d="M826.173,423.116c13.388,9.623,23.646,19.472,34.894,31.528" transform="translate(-645.995 -305.925)" fill="none" stroke="#699af1" stroke-linecap="round" stroke-miterlimit="10" stroke-width="4"/>
                        <g id="Group_770" data-name="Group 770" transform="translate(14.589 54.012)">
                            <path id="Path_1026" data-name="Path 1026" d="M572.382,364.363v9.087l.1.108c-6.567,6.15-17.3,8.844-26.616,6.289a26.642,26.642,0,0,1-13.8-9.06l.165.356-.814-24.956.392-1.584c-5.09,1.244-8.223-2.5-10.15-7.373a9.35,9.35,0,0,1-.758-4.3,6.488,6.488,0,0,1,12.3-2.2s9.071-2.712,11.172-25.462c11,9.337,33.5,10.08,43.438.844l.075.082c3.136,8.983,3.758,19.07,3.282,28.682-.319,6.454-1.1,13.058-4.076,18.8-3.187,6.154-8.649,9.3-14.766,10.374" transform="translate(-513.924 -303.323)" fill="#fff"/>
                            <path id="Path_1027" data-name="Path 1027" d="M533.864,365.043c-5.09,1.244-10.273-2.773-12.2-7.645a9.35,9.35,0,0,1-.758-4.3,6.488,6.488,0,0,1,12.3-2.2" transform="translate(-513.924 -323.49)" fill="none" stroke="#699af1" stroke-linecap="round" stroke-miterlimit="10" stroke-width="2"/>
                            <path id="Path_1028" data-name="Path 1028" d="M620,428.086V419" transform="translate(-561.543 -357.959)" fill="none" stroke="#699af1" stroke-miterlimit="10" stroke-width="2"/>
                            <path id="Path_1029" data-name="Path 1029" d="M525,384.022l.814,24.956s-7.29-.11-18.312-.022" transform="translate(-507.498 -341.157)" fill="none" stroke="#222221" stroke-linecap="round" stroke-linejoin="round" stroke-width="1.5"/>
                            <path id="Path_1030" data-name="Path 1030" d="M612.049,307.045c3.136,8.983,3.758,19.07,3.282,28.682-.319,6.454-1.1,13.058-4.076,18.8-7.7,14.866-28.671,12.174-40.081,5.153" transform="translate(-538.087 -304.178)" fill="none" stroke="#699af1" stroke-linecap="round" stroke-miterlimit="10" stroke-width="4"/>
                            <path id="Path_1031" data-name="Path 1031" d="M582.834,434.134c-6.567,6.15-17.3,8.844-26.616,6.289a26.642,26.642,0,0,1-13.8-9.06" transform="translate(-524.275 -363.899)" fill="none" stroke="#699af1" stroke-linecap="round" stroke-miterlimit="10" stroke-width="4"/>
                            <g id="Group_769" data-name="Group 769" transform="translate(46.035 11.648)">
                                <path id="Path_1032" data-name="Path 1032" d="M597.163,334.821c1.43.967,2.895-.215,3.618-1.459a5.645,5.645,0,0,0,.484-4.641c-.535-1.557-2.113-1.053-3.125-.457a5.165,5.165,0,0,0-1.614,2.062C595.966,331.718,595.738,333.856,597.163,334.821Z" transform="translate(-596.092 -325.742)" fill="#699af1"/>
                                <path id="Path_1033" data-name="Path 1033" d="M624.261,338.346a39.457,39.457,0,0,0-3.517-6.923c-1.029-1.631-3.721-.268-2.684,1.376a38.665,38.665,0,0,1,3.338,6.471c.446,1.133,1.48,2.933.52,4.125a5.115,5.115,0,0,1-3.771,1.465c-1.931-.182-2.06,2.832-.129,3.014,2.646.25,6.652-1.636,7.266-4.465C625.656,341.691,624.868,339.927,624.261,338.346Z" transform="translate(-605.959 -327.184)" fill="#699af1"/>
                                <path id="Path_1034" data-name="Path 1034" d="M638.028,330.228a1.842,1.842,0,0,0,2.56.142,4.531,4.531,0,0,0,1.229-5.42,1.548,1.548,0,0,0-2.258-.8,1.5,1.5,0,0,0-1.276.539A4.06,4.06,0,0,0,638.028,330.228Z" transform="translate(-615.772 -323.945)" fill="#699af1"/>
                                <path id="Path_1035" data-name="Path 1035" d="M610.218,369.775a15.57,15.57,0,0,1-9.5-7.185c-.985-1.666-3.674-.3-2.684,1.375a18.692,18.692,0,0,0,11.259,8.68C611.159,373.159,612.094,370.291,610.218,369.775Z" transform="translate(-596.922 -342.146)" fill="#699af1"/>
                            </g>
                            <path id="Path_1036" data-name="Path 1036" d="M637.9,302.091a2.252,2.252,0,0,0-1.417-.546,5.748,5.748,0,0,0-1.519.092c-.047.007-.091.021-.138.029a5.978,5.978,0,0,0-.752.19,5.318,5.318,0,0,0-.847.359c-.029.015-.059.025-.088.041a5.857,5.857,0,0,0-.86.579c-.03.024-.065.039-.1.064l.015-.005c-.045.036-.092.061-.136.1a3.15,3.15,0,0,0-1.073,1.6,1.765,1.765,0,0,0,.59,1.844,1.87,1.87,0,0,0,1.169.165l1.706-.135a7.52,7.52,0,0,0,2.175-.39,2.892,2.892,0,0,0,1.653-1.536A2.327,2.327,0,0,0,637.9,302.091Z" transform="translate(-566.796 -301.528)" fill="#699af1"/>
                            <path id="Path_1037" data-name="Path 1037" d="M599.688,307.115a2.249,2.249,0,0,0-1.417-.546,5.772,5.772,0,0,0-1.519.091c-.047.008-.091.021-.138.029a5.882,5.882,0,0,0-.752.19,5.311,5.311,0,0,0-.848.359c-.029.016-.059.026-.088.042a5.854,5.854,0,0,0-.86.579c-.03.024-.065.039-.095.064l.014-.006c-.044.036-.091.061-.135.1a3.148,3.148,0,0,0-1.073,1.6,1.765,1.765,0,0,0,.59,1.844,1.867,1.867,0,0,0,1.169.165l1.706-.135a7.5,7.5,0,0,0,2.175-.389,2.89,2.89,0,0,0,1.652-1.536A2.325,2.325,0,0,0,599.688,307.115Z" transform="translate(-548.44 -303.941)" fill="#699af1"/>
                        </g>
                        <g id="Group_771" data-name="Group 771" transform="translate(0.441 11.276)">
                            <path id="Path_1038" data-name="Path 1038" d="M554.571,252.717a47.54,47.54,0,0,0-19.69.571,44.7,44.7,0,0,0-9.074,3.31c-13.007,6.413-20.116,16.817-21.792,28.926" transform="translate(-491.677 -234.978)" fill="none" stroke="#222221" stroke-linecap="round" stroke-linejoin="round" stroke-width="1.5"/>
                            <path id="Path_1039" data-name="Path 1039" d="M504.065,285.412a18.114,18.114,0,0,1,3.432,6.864c1.894,6.914,1.221,11.664-3.39,17.36a83.277,83.277,0,0,1,2.556,19.707c.16,5.241.023,10.6-1.367,15.626l.707.044c11.022-.087,18.312.022,18.312.022l-.814-24.956-.016-1.1c-4.22-.284-8.126-3.769-9.743-7.855a9.356,9.356,0,0,1-.758-4.3,6.488,6.488,0,0,1,12.3-2.2s9.072-2.713,11.172-25.463c11.463,9.73,35.408,10.127,44.624-.375,4.374-4.985,4.307-16.106-.881-22.243-4.321-5.112-14.072-9.6-25.852-5.134a47.54,47.54,0,0,0-19.69.571,44.7,44.7,0,0,0-9.074,3.31c-13.007,6.413-20.116,16.817-21.792,28.926Z" transform="translate(-491.567 -233.835)" fill="#699af1" stroke="#699af1" stroke-miterlimit="10" stroke-width="1"/>
                            <path id="Path_1040" data-name="Path 1040" d="M503.777,254.548a18.133,18.133,0,1,1,24.347-17.037" transform="translate(-485.84 -219.33)" fill="#699af1" stroke="#699af1" stroke-miterlimit="10" stroke-width="1"/>
                            <path id="Path_1041" data-name="Path 1041" d="M612.333,249.819c6.641-.974,13.738-.217,19.442,3.321s9.7,10.175,8.975,16.848-6.925,12.631-13.612,12.054" transform="translate(-543.711 -233.764)" fill="none" stroke="#699af1" stroke-linecap="round" stroke-miterlimit="10" stroke-width="4"/>
                            <path id="Path_1042" data-name="Path 1042" d="M499.175,254.547c-5.781.262-11.077-3.546-14.5-8.216-2.941-4.017-4.89-8.991-4.306-13.936a14.9,14.9,0,0,1,24.956-9.159" transform="translate(-480.271 -219.282)" fill="none" stroke="#699af1" stroke-linecap="round" stroke-miterlimit="10" stroke-width="4"/>
                        </g>
                    </g>
                    <path id="Path_1043" data-name="Path 1043" d="M738.011,276.193a6.565,6.565,0,0,1,.154-11.211,12.113,12.113,0,0,1,2.223-.955,79.924,79.924,0,0,1,10.574-2.873" transform="translate(-464.024 -228.121)" fill="none" stroke="#699af1" stroke-linecap="round" stroke-miterlimit="10" stroke-width="4"/>
                    <path id="Path_1044" data-name="Path 1044" d="M747.463,290.948a5.887,5.887,0,0,1-4.091-3.166,5.537,5.537,0,0,1,1.556-5.771,14.248,14.248,0,0,1,5.519-3,22.759,22.759,0,0,0,5.78-2.541" transform="translate(-467.929 -235.478)" fill="none" stroke="#699af1" stroke-linecap="round" stroke-miterlimit="10" stroke-width="4"/>
                    <path id="Path_1045" data-name="Path 1045" d="M791.936,296.232c-8.409,2.17-31.89,9.782-31.89,9.782l-.775.268c-1.582.563-5.2.588-6.7-1.234-1.311-1.593-2.063-2.8-1.918-4.367.284-3.095,2.765-5.527,5.576-6.854s5.956-2.031,8.439-3.9" transform="translate(-471.563 -241.942)" fill="none" stroke="#699af1" stroke-linecap="round" stroke-miterlimit="10" stroke-width="4"/>
                    <g id="Group_782" data-name="Group 782" transform="translate(0 67.857)">
                        <g id="Group_773" data-name="Group 773" transform="translate(105.662 506.749)">
                            <rect id="Rectangle_252" data-name="Rectangle 252" width="51.81" height="25.392" transform="translate(0.944 0.038)" fill="#f3f3f3"/>
                            <path id="Path_1046" data-name="Path 1046" d="M506.262,1454.483a16.812,16.812,0,0,1-1.952,10.7H441.234a20.413,20.413,0,0,1-17.622-10.089" transform="translate(-420.129 -1375.983)" fill="#f3f3f3"/>
                            <path id="Path_1047" data-name="Path 1047" d="M417.507,1364.495c.442-22.779.885-37.233,1.327-59.6" transform="translate(-417.197 -1304.122)" fill="none" stroke="#222221" stroke-linecap="round" stroke-linejoin="round" stroke-width="1.51"/>
                            <path id="Path_1048" data-name="Path 1048" d="M487.479,1305.415c-.327,11.015-.729,29.245-.779,41.368a18.747,18.747,0,0,0,9.441,16.362c4.579,2.621,10.182,5.813,15.313,8.7a16.893,16.893,0,0,1,6.486,22.948H454.864q-.884,0-1.749-.074" transform="translate(-434.302 -1304.373)" fill="none" stroke="#222221" stroke-linecap="round" stroke-linejoin="round" stroke-width="1.51"/>
                            <line id="Line_16" data-name="Line 16" x2="50.44" transform="translate(1.366 22.742)" fill="none" stroke="#222221" stroke-linecap="round" stroke-linejoin="round" stroke-width="1.51"/>
                            <path id="Path_1049" data-name="Path 1049" d="M418.14,1347.956h50.44l.849.038c-.133,6.97-.234,13.966-.258,19.629a18.746,18.746,0,0,0,9.441,16.362c4.579,2.621,10.182,5.814,15.313,8.7a16.864,16.864,0,0,1,8.3,11.465l-1.015-.337H420.16l-1.3.11a20.349,20.349,0,0,1-1.944-9.075c.33-18.781.66-32.483.99-46.895" transform="translate(-416.91 -1324.807)" fill="#222221"/>
                            <path id="Path_1050" data-name="Path 1050" d="M456.314,1452.582h62.041" transform="translate(-435.839 -1375.07)" fill="none" stroke="#222221" stroke-linecap="round" stroke-linejoin="round" stroke-width="1.51"/>
                            <path id="Path_1051" data-name="Path 1051" d="M417.03,1303.41c.827,0,52.489,6.1,52.489,6.1l-.206-5.7Z" transform="translate(-416.968 -1303.41)" fill="#222221"/>
                        </g>
                        <g id="Group_774" data-name="Group 774" transform="translate(40.56 505.325)">
                            <rect id="Rectangle_253" data-name="Rectangle 253" width="51.81" height="26.855" transform="translate(1.215)" fill="#f3f3f3"/>
                            <path id="Path_1052" data-name="Path 1052" d="M378.155,1454.223a16.818,16.818,0,0,1-1.953,10.7H313.126a20.414,20.414,0,0,1-17.622-10.089,9.151,9.151,0,0,1-1.355-3.428" transform="translate(-292.836 -1373.078)" fill="#f3f3f3"/>
                            <path id="Path_1053" data-name="Path 1053" d="M345.445,1303.66c-.326,11.015-.728,29.245-.779,41.368a18.748,18.748,0,0,0,9.441,16.362c4.579,2.621,10.182,5.813,15.312,8.7a16.89,16.89,0,0,1,6.487,22.948H312.831a20.416,20.416,0,0,1-20.422-20.784c.5-28.444,1-45.237,1.5-70.489" transform="translate(-291.998 -1301.194)" fill="none" stroke="#222221" stroke-linecap="round" stroke-linejoin="round" stroke-width="1.51"/>
                            <line id="Line_17" data-name="Line 17" x2="50.439" transform="translate(1.637 24.167)" fill="none" stroke="#222221" stroke-linecap="round" stroke-linejoin="round" stroke-width="1.51"/>
                            <line id="Line_18" data-name="Line 18" x2="81.053" transform="translate(3.657 80.021)" fill="none" stroke="#222221" stroke-linecap="round" stroke-linejoin="round" stroke-width="1.51"/>
                            <path id="Path_1054" data-name="Path 1054" d="M292.852,1347.956h50.439l.849.038c-.134,6.97-.234,13.966-.258,19.629a18.748,18.748,0,0,0,9.441,16.362c4.579,2.621,10.182,5.814,15.312,8.7a16.865,16.865,0,0,1,8.3,11.465l-1.015-.337H294.872l-1.3.11a20.342,20.342,0,0,1-1.944-9.075c.33-18.781.659-32.483.989-46.895" transform="translate(-291.622 -1323.383)" fill="#222221"/>
                            <path id="Path_1055" data-name="Path 1055" d="M294.874,1303.41c.814,0,51.675,6.1,51.675,6.1l-.2-5.7Z" transform="translate(-293.184 -1301.986)" fill="#222221"/>
                        </g>
                        <g id="Group_776" data-name="Group 776" transform="translate(77.019)">
                            <path id="Path_1056" data-name="Path 1056" d="M426.139,328.173a15.034,15.034,0,0,1-24.265,12.419c-1.641,7.088-9.024,11.949-16.523,12.819l-.307.235c.4,6.255-.809,12.589-5.319,15.889l-4.876-9.1a7.014,7.014,0,0,0-13.062,3.424,10.11,10.11,0,0,0,1.184,4.573c2.494,5.086,8.423,8.971,13.8,7.2l1.866,17.645-.572,15.513-.22,2.046A26.773,26.773,0,0,0,394.281,423.8c11.82,3.242,23.586-1.3,29.659-11.268l.272-.19a6.762,6.762,0,0,1-1.22-3.661l-.351-10.856.033-1.229a18.692,18.692,0,0,0,12.647-11.029c2.51-5.972,2.766-12.634,2.568-19.108-.4-13.261-2.954-27.253-11-37.579" transform="translate(-361.787 -328.173)" fill="#fff"/>
                            <path id="Path_1057" data-name="Path 1057" d="M377.3,402.266c-5.379,1.776-11.308-2.11-13.8-7.2a10.111,10.111,0,0,1-1.184-4.573,7.014,7.014,0,0,1,13.062-3.424c1.75,2.981,3.6,5.63,4.627,8.93" transform="translate(-362.038 -354.813)" fill="none" stroke="#699af1" stroke-linecap="round" stroke-miterlimit="10" stroke-width="2"/>
                            <path id="Path_1058" data-name="Path 1058" d="M459.355,329.529c8.051,10.326,10.6,24.318,11,37.579.2,6.474-.058,13.136-2.568,19.108-6.5,15.471-27.385,14.45-38.976,5.136" transform="translate(-393.987 -328.824)" fill="none" stroke="#699af1" stroke-linecap="round" stroke-miterlimit="10" stroke-width="4"/>
                            <g id="Group_775" data-name="Group 775" transform="translate(47.886 20.882)">
                                <path id="Path_1059" data-name="Path 1059" d="M454.953,378.6c1.346.911,2.726-.2,3.407-1.374a5.318,5.318,0,0,0,.456-4.371c-.5-1.466-1.991-.992-2.944-.43a4.868,4.868,0,0,0-1.52,1.942C453.825,375.682,453.61,377.7,454.953,378.6Z" transform="translate(-453.943 -370.053)" fill="#699af1"/>
                                <path id="Path_1060" data-name="Path 1060" d="M480.475,381.924a37.139,37.139,0,0,0-3.313-6.521c-.969-1.536-3.5-.252-2.527,1.3a36.383,36.383,0,0,1,3.143,6.095c.42,1.067,1.395,2.762.49,3.885a4.817,4.817,0,0,1-3.552,1.38c-1.819-.171-1.941,2.668-.121,2.839,2.493.235,6.265-1.541,6.843-4.206C481.789,385.075,481.047,383.413,480.475,381.924Z" transform="translate(-463.237 -371.411)" fill="#699af1"/>
                                <path id="Path_1061" data-name="Path 1061" d="M493.442,374.279a1.735,1.735,0,0,0,2.412.134,4.268,4.268,0,0,0,1.157-5.105,1.458,1.458,0,0,0-2.126-.749,1.41,1.41,0,0,0-1.2.508A3.825,3.825,0,0,0,493.442,374.279Z" transform="translate(-472.48 -368.36)" fill="#699af1"/>
                                <path id="Path_1062" data-name="Path 1062" d="M470.236,417.456a14.666,14.666,0,0,1-10.509-3.926c-1.337-1.238-3.4.719-2.051,1.964a17.6,17.6,0,0,0,12.5,4.8C472,420.257,472.068,417.417,470.236,417.456Z" transform="translate(-455.526 -389.869)" fill="#699af1"/>
                            </g>
                            <path id="Path_1063" data-name="Path 1063" d="M493.322,348.638a2.122,2.122,0,0,0-1.334-.514,5.418,5.418,0,0,0-1.432.087c-.044.007-.086.02-.13.027a5.567,5.567,0,0,0-.708.179,5.021,5.021,0,0,0-.8.338c-.027.015-.056.024-.083.039a5.521,5.521,0,0,0-.811.545c-.029.022-.061.037-.089.06l.014-.005c-.042.034-.087.057-.128.094a2.964,2.964,0,0,0-1.01,1.5,1.662,1.662,0,0,0,.555,1.737,1.761,1.761,0,0,0,1.1.155l1.607-.127a7.091,7.091,0,0,0,2.049-.367,2.723,2.723,0,0,0,1.556-1.447A2.19,2.19,0,0,0,493.322,348.638Z" transform="translate(-421.824 -337.749)" fill="#699af1"/>
                            <path id="Path_1064" data-name="Path 1064" d="M458.633,356.448a2.122,2.122,0,0,0-1.335-.514,5.414,5.414,0,0,0-1.431.087c-.045.007-.086.02-.13.027a5.467,5.467,0,0,0-.709.179,5,5,0,0,0-.8.338c-.028.015-.056.024-.083.039a5.551,5.551,0,0,0-.811.545c-.029.022-.061.037-.089.06l.014-.005c-.042.034-.086.057-.128.093a2.966,2.966,0,0,0-1.01,1.5,1.661,1.661,0,0,0,.555,1.737,1.754,1.754,0,0,0,1.1.155l1.607-.127a7.091,7.091,0,0,0,2.049-.367,2.725,2.725,0,0,0,1.556-1.447A2.191,2.191,0,0,0,458.633,356.448Z" transform="translate(-405.16 -341.501)" fill="#699af1"/>
                        </g>
                        <path id="Path_1065" data-name="Path 1065" d="M522.056,665.741c3.048-24.091,8.134-49.042,11-72.266,2.891-23.414,4.883-61.44-1.22-74.459-5.826-12.43-16.608-17.279-31.292-21.9l-1.395-.076c1.145,3.665,3.445,9.207,5.3,13.5a93.642,93.642,0,0,0,5.314,10.145c6.936,11.811,8.65,26.273,8.538,40.1-.124,15.366-1.946,27.645-1.931,37.435v.272c1.4,18.654,3.284,41.25,5.435,65.677Z" transform="translate(-350.755 -409.295)" fill="#fff"/>
                        <g id="Group_777" data-name="Group 777" transform="translate(58.811 82.283)">
                            <path id="Path_1066" data-name="Path 1066" d="M435.022,594.378c-.513-12.565.9-25.217,1.005-37.829.112-13.829-1.6-28.292-8.538-40.1a93.747,93.747,0,0,1-5.314-10.144c-1.859-4.291-4.159-9.833-5.3-13.5l.323-.259c-1.908-.591-3.88-1.182-5.914-1.788a6.793,6.793,0,0,1-3.588-2.559l-.315.13c-6.074,9.97-17.839,14.51-29.659,11.268a26.77,26.77,0,0,1-16.432-12.969l-.243-.1a6.148,6.148,0,0,1-5.275,3.755c-6.822.436-12.815.9-12.815.9l-.931.348c2.268,9.366,3.861,12.793,6.557,22.049l-.108-.283.365.208,7.753,4.434c2.047,1.171,4.206,2.456,5.267,4.563a6.052,6.052,0,0,1-4.955,8.758,4.547,4.547,0,0,1-3.683-1.084l-.8-.384c.579,3.2,1.043,6.426,1.362,9.667.438,4.447,2.972,16.527-3.136,18.132a4.9,4.9,0,0,1-5.9-2.934l-.434-1.5c.466,2.334,1.348,4.347.094,6.649A4.376,4.376,0,0,1,341,562.135a4.943,4.943,0,0,1-1.793-.249l-.052-.017a6.838,6.838,0,0,1-4.533-5.572l-2.674,1.45c-1.5,10.636-3.326,23.224-5.208,36.4l.747.107H434.1" transform="translate(-326.745 -486.527)" fill="#fff"/>
                        </g>
                        <g id="Group_778" data-name="Group 778" transform="translate(0 96.078)">
                            <path id="Path_1067" data-name="Path 1067" d="M273.325,572.2c-2.368-.793-3.729-3.143-4.649-5.417-1.183-2.923-4.817-14.787-6.274-18.583-2.511-6.548-5.138-13.064-8-19.469-1.093-2.447-3.276-7.862-5.517-13.514l-.79-1.62a106.729,106.729,0,0,0-5.33,20.161c-11.964,67.806-19.231,113.226-28.157,170.032l-.91,5.943c-.255,2.594-.253,4.36.855,6.081a5.314,5.314,0,0,0,5.27,2.4c2.012-.38,3.233-2.071,3.691-4.207l.408-2.277-1.376,8.737-.42,2.585c-.651,5.036,2.508,6.948,5.7,5.919,1.9-.611,3.466-2.35,3.72-5.3l.618-1.6a5.967,5.967,0,0,0,5.406,1.524c2.688-.616,4.2-2.841,4.923-5.3,2.545-8.7,3.614-17.33,5.31-26.042a46.568,46.568,0,0,0,2.8,8.454c1.9,4.114,7.972,3.74,9.091-.65a7.673,7.673,0,0,0,.184-2.651c-.38-3.894-1.461-7.005-2.833-15.281-1.477-8.906.224-14.811,1.831-25.837,2.489-17.073,12.576-67.272,17.225-83.887Z" transform="translate(-213.564 -513.326)" fill="#fff"/>
                            <path id="Path_1068" data-name="Path 1068" d="M279.474,746.1a46.569,46.569,0,0,0,2.8,8.454c1.9,4.114,7.972,3.74,9.091-.651a7.67,7.67,0,0,0,.184-2.65c-.38-3.894-1.461-7.005-2.833-15.281-1.477-8.906.224-14.811,1.831-25.837,2.489-17.072,12.576-67.272,17.225-83.886" transform="translate(-245.226 -567.441)" fill="none" stroke="#699af1" stroke-linecap="round" stroke-miterlimit="10" stroke-width="4"/>
                            <path id="Path_1069" data-name="Path 1069" d="M249.375,886.718a5.966,5.966,0,0,0,5.406,1.524c2.688-.616,4.2-2.841,4.923-5.3,2.545-8.7,3.614-17.331,5.31-26.042" transform="translate(-230.767 -678.243)" fill="none" stroke="#222221" stroke-linecap="round" stroke-linejoin="round" stroke-width="1.51"/>
                            <path id="Path_1070" data-name="Path 1070" d="M252.583,849.06c-.122-.609-4.6,36.011-4.638,36.661" transform="translate(-230.08 -674.473)" fill="none" stroke="#222221" stroke-linecap="round" stroke-linejoin="round" stroke-width="1.51"/>
                            <path id="Path_1071" data-name="Path 1071" d="M239.392,884.741c-.254,2.95-1.824,4.69-3.72,5.3-3.2,1.029-6.355-.883-5.7-5.919l.42-2.585,5.054-32.076" transform="translate(-221.403 -674.669)" fill="none" stroke="#222221" stroke-linecap="round" stroke-linejoin="round" stroke-width="1.51"/>
                            <path id="Path_1072" data-name="Path 1072" d="M223.518,713.484c-.458,2.136-1.679,3.826-3.691,4.206a5.315,5.315,0,0,1-5.27-2.4c-1.108-1.721-1.11-3.487-.855-6.081l.91-5.944c8.926-56.806,16.193-102.226,28.157-170.032a106.727,106.727,0,0,1,5.33-20.161" transform="translate(-213.564 -513.075)" fill="none" stroke="#699af1" stroke-linecap="round" stroke-miterlimit="10" stroke-width="4"/>
                        </g>
                        <g id="Group_779" data-name="Group 779" transform="translate(18.463 154.268)">
                            <path id="Path_1073" data-name="Path 1073" d="M397.2,693.987c7.508,100.363,28.753,314.673,28.753,314.673-46.654,4.689-156.973.5-176.86,0,4.537-66.171,27.077-219.021,40.755-314.78" transform="translate(-249.095 -658.12)" fill="#fff"/>
                            <path id="Path_1074" data-name="Path 1074" d="M396.92,661.077c7.508,100.363,29.3,314.8,29.3,314.8-46.654,4.689-156.973.5-176.86,0,4.537-66.171,26.534-219.144,40.213-314.9,1.882-13.178,3.607-25.273,5.107-35.909" transform="translate(-249.22 -625.061)" fill="none" stroke="#699af1" stroke-linecap="round" stroke-miterlimit="10" stroke-width="4"/>
                        </g>
                        <g id="Group_780" data-name="Group 780" transform="translate(59.558 65.098)">
                            <path id="Path_1075" data-name="Path 1075" d="M377.062,453.453l-.572,15.513a6.144,6.144,0,0,1-5.737,5.7c-6.822.436-12.815.9-12.815.9" transform="translate(-342.477 -453.453)" fill="none" stroke="#699af1" stroke-linecap="round" stroke-miterlimit="10" stroke-width="4"/>
                            <line id="Line_19" data-name="Line 19" x2="106.605" transform="translate(0 125.186)" fill="none" stroke="#699af1" stroke-linecap="round" stroke-miterlimit="10" stroke-width="4"/>
                            <path id="Path_1076" data-name="Path 1076" d="M439.312,488.945c-6.074,9.97-17.839,14.51-29.659,11.268a26.77,26.77,0,0,1-16.432-12.969" transform="translate(-359.426 -469.686)" fill="none" stroke="#699af1" stroke-linecap="round" stroke-miterlimit="10" stroke-width="4"/>
                        </g>
                        <g id="Group_781" data-name="Group 781" transform="translate(138.144 69.65)">
                            <path id="Path_1077" data-name="Path 1077" d="M513.121,650.1c3.048-24.091,8.134-49.042,11-72.266,2.891-23.414,4.883-61.44-1.22-74.459-6.714-14.325-20.01-18.581-38.278-24.02a6.791,6.791,0,0,1-4.851-6.28l-.351-10.856" transform="translate(-479.422 -462.215)" fill="none" stroke="#699af1" stroke-linecap="round" stroke-miterlimit="10" stroke-width="4"/>
                            <path id="Path_1078" data-name="Path 1078" d="M520.628,544.63c6.936,11.811,8.65,26.273,8.538,40.1-.124,15.366-1.946,27.645-1.931,37.435" transform="translate(-499.217 -501.806)" fill="none" stroke="#699af1" stroke-linecap="round" stroke-miterlimit="10" stroke-width="4"/>
                        </g>
                    </g>
                    <g id="Group_783" data-name="Group 783" transform="translate(33.346 129.372)">
                        <path id="Path_1079" data-name="Path 1079" d="M310.376,534.639a4.4,4.4,0,0,1-1.074,3.17,4.974,4.974,0,0,1-5.42,1.644c-2.368-.793-3.73-3.143-4.65-5.418-1.182-2.923-4.817-14.787-6.273-18.582-2.512-6.548-5.138-13.064-8-19.469-1.093-2.447-3.276-7.863-5.517-13.514a24.1,24.1,0,0,1,11.285-30.313,91.748,91.748,0,0,1,12.889-5.59l.005-.009c3.736,2.342,8.265,3.418,12.216,2.337.776,5.183,5.2,9.335,10.226,10.824a7.645,7.645,0,0,0,.884.211c5.67.969,10.654-3.1,10.654-3.1l-.407,8.748a5.28,5.28,0,0,1-5.289,5.188c-6.823.436-12.919.61-12.919.61l-1.085.576c2.206,9.114,4.473,14.417,6.772,22.134l-.017.005,8.117,4.643c2.047,1.171,4.206,2.456,5.267,4.563a6.052,6.052,0,0,1-4.955,8.758l-4.116.64c.411,2.508.75,5.028,1,7.559.438,4.447,2.972,16.527-3.136,18.132a4.9,4.9,0,0,1-5.9-2.934l-.434-1.5c.466,2.334,1.348,4.347.094,6.649a4.376,4.376,0,0,1-3.405,2.338,4.943,4.943,0,0,1-1.793-.249l-.052-.017a6.839,6.839,0,0,1-4.533-5.572Z" transform="translate(-277.737 -446.558)" fill="#fff"/>
                        <path id="Path_1080" data-name="Path 1080" d="M342.285,459.93a7.647,7.647,0,0,1-.884-.211c-5.025-1.489-9.449-5.641-10.226-10.824-3.951,1.081-8.481.005-12.216-2.337l-.005.009a80.2,80.2,0,0,0-9.295,3.81,20.408,20.408,0,0,1,4.1.455c10.968.4,19.061,9.358,19.8,20.027.2.2.394.4.594.6l.164-.087s6.1-.174,12.919-.61a5.28,5.28,0,0,0,5.289-5.188l.407-8.748S347.955,460.9,342.285,459.93Z" transform="translate(-293.072 -446.558)" fill="#ffbb67"/>
                        <path id="Path_1081" data-name="Path 1081" d="M308.6,455.188s11.709-.255,17.578,5.419,5.35,10.5,5.35,10.5c2.7,11.137,6.959,21.85,9.784,32.963a139.138,139.138,0,0,1,3.76,20.6c.438,4.447,2.972,16.527-3.136,18.132a4.9,4.9,0,0,1-5.9-2.934" transform="translate(-292.561 -450.703)" fill="none" stroke="#699af1" stroke-linecap="round" stroke-miterlimit="10" stroke-width="4"/>
                        <path id="Path_1082" data-name="Path 1082" d="M304.141,447.1a91.813,91.813,0,0,0-12.889,5.59A24.1,24.1,0,0,0,279.967,483c2.241,5.651,4.424,11.066,5.517,13.514,2.859,6.4,5.486,12.92,8,19.468,1.456,3.8,5.091,15.66,6.274,18.583.92,2.274,2.281,4.625,4.649,5.418a4.976,4.976,0,0,0,5.421-1.645,4.4,4.4,0,0,0,1.073-3.17" transform="translate(-277.988 -446.817)" fill="none" stroke="#699af1" stroke-linecap="round" stroke-miterlimit="10" stroke-width="4"/>
                        <path id="Path_1083" data-name="Path 1083" d="M343.941,572.477a124.45,124.45,0,0,1,2.784,14.655c.392,2.531.789,5.064,1.291,7.577.466,2.333,1.348,4.347.094,6.649A4.376,4.376,0,0,1,344.7,603.7a4.931,4.931,0,0,1-1.793-.25l-.052-.016a6.839,6.839,0,0,1-4.533-5.572c-.745-4.957-2.563-16.783-3.88-23.21" transform="translate(-304.98 -507.047)" fill="none" stroke="#699af1" stroke-linecap="round" stroke-miterlimit="10" stroke-width="4"/>
                        <path id="Path_1084" data-name="Path 1084" d="M368.56,538.557l8.117,4.643c2.047,1.171,4.206,2.456,5.267,4.563a6.052,6.052,0,0,1-4.955,8.759" transform="translate(-321.367 -490.753)" fill="none" stroke="#699af1" stroke-linecap="round" stroke-miterlimit="10" stroke-width="4"/>
                    </g>
                    <g id="Group_784" data-name="Group 784" transform="translate(46.388 45.462)">
                        <path id="Path_1085" data-name="Path 1085" d="M332.75,325.712c-4.723,5.893-12.666,9.988-16.177,16.673s-5.232,14.753-2.612,21.836,11.867,12.421,19.15,10.427c.776,5.183,5.2,9.336,10.226,10.825a8.938,8.938,0,0,0,.884.211c7.262,1.364,11.72-5.11,11.311-12.864l-1.557-14.963-.306.123c-5.379,1.776-11.308-2.11-13.8-7.2a10.107,10.107,0,0,1-1.185-4.573,7.014,7.014,0,0,1,13.062-3.424l4.875,9.1c4.51-3.3,5.719-9.635,5.319-15.889l.307-.235c7.5-.87,14.882-5.731,16.523-12.819a15.035,15.035,0,0,0,24.265-12.42l.745.705a48.134,48.134,0,0,1,8.2,17.049l.25.824c4.612-5.7,5.284-10.446,3.391-17.36-2.617-9.552-10.173-13.427-19.938-12.207h0c-7.866-8.273-22.531-11.46-35.806-6.51-16,5.968-19.395,11.936-27.126,32.686" transform="translate(-307.572 -287.763)" fill="#ef91dc" stroke="#ef91dc" stroke-miterlimit="10" stroke-width="3"/>
                        <path id="Path_1086" data-name="Path 1086" d="M355.142,391.631l1.557,14.963c.409,7.754-4.049,14.228-11.311,12.864a8.781,8.781,0,0,1-.884-.211c-5.025-1.489-9.449-5.641-10.226-10.824-7.283,1.994-16.531-3.345-19.15-10.427s-.9-15.15,2.612-21.836,11.454-10.78,16.177-16.673" transform="translate(-308.133 -320.821)" fill="none" stroke="#ef91dc" stroke-linecap="round" stroke-miterlimit="10" stroke-width="2"/>
                        <path id="Path_1087" data-name="Path 1087" d="M419.173,297.138c-3.4-5.385-9.29-8.791-15.4-10.568a33.2,33.2,0,0,0-20.644.3c-8.436,3.127-14.883,10.289-19.013,18.282s-6.224,16.855-8.281,25.613" transform="translate(-328.295 -285.074)" fill="none" stroke="#ef91dc" stroke-miterlimit="10" stroke-width="3"/>
                        <path id="Path_1088" data-name="Path 1088" d="M317.632,397.753c-4.941-2.53-10.155-5.316-12.88-10.152-3.13-5.554-2.15-12.711.977-18.267s8.1-9.809,13.115-13.744,10.244-7.742,14.179-12.758" transform="translate(-302.837 -312.82)" fill="none" stroke="#ef91dc" stroke-miterlimit="10" stroke-width="3"/>
                    </g>
                </g>
            </g>
        </g>
        <g id="Group_831" data-name="Group 831" transform="translate(181.206 1042.94)">
            <g id="Group_823" data-name="Group 823" transform="translate(277.91 140.699)">
                <path id="Path_1179" data-name="Path 1179" d="M448.751,606.294c-2.116-1.314-4.455-2.249-6.447-3.765-6.708-5.1-1.813-13.1,3.55-17.165,6.975-5.287,14.636-11.721,13.367-21.494-1.474-11.342-13.28-17.95-17.609-27.959-.469-1.086-2.058-.148-1.591.93,5.538,12.8,24.795,23,14.112,38.43-4.779,6.9-18.33,11.306-17.607,21.407.839,11.707,19.676,8.942,16.734,23-1.247,5.964-5.192,10.617-5.655,16.875a25.241,25.241,0,0,0,3.323,14.124c.566,1.043,2.158.114,1.592-.93-4.886-9.016-2.7-16.146.88-25.057,1.547-3.856,2.945-7.879,1.443-11.961C453.741,609.744,451.381,607.928,448.751,606.294Z" transform="translate(-379.329 -393.134)" fill="#699af1"/>
                <g id="Group_822" data-name="Group 822">
                    <g id="Group_820" data-name="Group 820" transform="translate(1.882 1.892)">
                        <g id="Group_818" data-name="Group 818">
                            <g id="Group_817" data-name="Group 817">
                                <path id="Path_1180" data-name="Path 1180" d="M434.333,495.281c1.778-.326,7.158-1.544,5.615-4.288-.806.289-1.615.558-2.431.78a26.6,26.6,0,0,1-9.124.779C427.609,496.184,431.786,495.748,434.333,495.281Z" transform="translate(-375.967 -366.609)" fill="#ef91dc"/>
                                <path id="Path_1181" data-name="Path 1181" d="M426.262,503.287c-1.842.271-4.818.829-6.456-.435-.014-.01-.021-.023-.035-.034-1.712,1.394-5.328,4.394-2.05,5.655-.546-.21,2.982-.99,2.8-.993,2.022.034,3.331,1.626,4.7,2.849q2.764,3.745,6.872-.375a3.211,3.211,0,0,1,.292-1.555c.515-.494.419-1.046.9-1.472,1.4-1.242,1.28-.044,2.755-.9,4.69-2.707-.115-4.137-2.789-5.541C431.392,502.1,428.047,503.025,426.262,503.287Z" transform="translate(-368.355 -372.683)" fill="#ef91dc"/>
                                <path id="Path_1182" data-name="Path 1182" d="M372.937,194.313c-3.425-12.759-9.211-26.606-18.143-36.526-10.561-11.728-27.4-14.209-42-9.786-26.948,12.72-33.5,45.34-27.73,72.269,2.737,12.778,8.008,27.183,18.357,35.8,10.569,8.8,29.406,17.458,42.984,12.555C376,257.934,379.987,220.578,372.937,194.313Z" transform="translate(-283.132 -145.947)" fill="#ef91dc"/>
                            </g>
                        </g>
                        <g id="Group_819" data-name="Group 819" transform="translate(7.272 7.38)">
                            <path id="Path_1183" data-name="Path 1183" d="M337.468,169.3c-1.134-2.973-4.575-3.446-7.187-2.326a12.172,12.172,0,0,0-4.461,3.531,30.435,30.435,0,0,0-9.918,14.976c-.818,2.956-.324,6.436,3.256,7.164,4.155.845,6.062-3.032,7.714-6.073,1.969-3.623,4.651-5.672,7.4-8.595C336.313,175.811,338.655,172.412,337.468,169.3Z" transform="translate(-311.142 -166.419)" fill="#fff"/>
                            <path id="Path_1184" data-name="Path 1184" d="M311.216,245.158c-.832-2.4-3.677-3.977-6.014-2.5a3.186,3.186,0,0,0-1.454,2.48,3.918,3.918,0,0,0,5.5,5.171A4.3,4.3,0,0,0,311.216,245.158Z" transform="translate(-303.305 -214.808)" fill="#fff"/>
                        </g>
                    </g>
                    <g id="Group_821" data-name="Group 821">
                        <path id="Path_1185" data-name="Path 1185" d="M302.545,259.583m.653,1.47" transform="translate(-293.664 -216.727)" fill="#1a262c"/>
                        <path id="Path_1186" data-name="Path 1186" d="M367.031,177.7c-4.5-10.952-10.557-23.254-20.605-30.137-10.91-7.473-24.778-8.48-37.2-4.775a.957.957,0,0,0-.312.075c-.026.012-.049.027-.075.039-.2.062-.4.114-.605.178a.873.873,0,0,0-.492.391c-21.3,10.533-30.385,34.149-29.8,57.015.59,23.128,9.16,48.827,30.838,59.9,6.617,3.38,14.019,6.926,21.571,7.953a6.011,6.011,0,0,0-.12,2.836c-1.913,1.7-8.142,7.885-3.366,9.676.636.239,1.23-.034,1.9-.058a4.419,4.419,0,0,0,1.334-.819q3.448-.8,5.267,1.568c1.769,1.125,2.95,2.852,5.33,2.834,2.242-.017,2.958-1.035,4.234-2.486a4.475,4.475,0,0,0,.388-1.536q.907-3.07,3.47-2.567c1.138-.538,1.856.026,2.842-.974,3.12-3.166-3.279-6.53-5.811-7.9a2.908,2.908,0,0,0-.282-2.622,45.861,45.861,0,0,0,20.623-18.146C378.752,227.1,375.977,199.494,367.031,177.7Zm-19.554,98.24c-1.475.851-1.357-.347-2.755.9-.48.426-.385.978-.9,1.472a3.211,3.211,0,0,0-.292,1.555q-4.107,4.12-6.872.375c-1.368-1.223-2.677-2.816-4.7-2.849.181,0-3.348.783-2.8.993-3.278-1.262.338-4.262,2.05-5.655.013.011.021.024.035.034,1.639,1.265,4.615.707,6.456.435,1.785-.262,5.13-1.183,6.988-2.8C347.362,271.8,352.166,273.233,347.477,275.94Zm-15.258-7.406a26.6,26.6,0,0,0,9.124-.779c.816-.222,1.625-.491,2.431-.78,1.543,2.744-3.838,3.962-5.615,4.288C335.612,271.731,331.435,272.167,332.219,268.535Zm10.848-3.27c-13.579,4.9-32.415-3.758-42.984-12.555-10.35-8.613-15.62-23.019-18.357-35.8-5.769-26.929.782-59.548,27.73-72.269,14.6-4.423,31.437-1.943,42,9.786,8.932,9.92,14.719,23.767,18.143,36.526C376.647,217.222,372.659,254.578,343.067,265.265Z" transform="translate(-277.91 -140.699)" fill="#699af1"/>
                    </g>
                </g>
            </g>
            <g id="Group_830" data-name="Group 830" transform="translate(375.632 209.797)">
                <g id="Group_826" data-name="Group 826" transform="translate(1.882 1.844)">
                    <g id="Group_824" data-name="Group 824">
                        <path id="Path_1187" data-name="Path 1187" d="M582.582,668.977c-1.585.2-3.172.389-4.751.627-1.945.293-2.508,1.687-2.894,3.353a.824.824,0,0,1-.06.449c-1.088,2.535,3.256,2.154,4.573,2.194a3.384,3.384,0,0,1,2.945,1.314l.061.145a9.251,9.251,0,0,1,1.372,1.809c.7,1.041,1.161,2.09,2.354,2.7a4.446,4.446,0,0,0,4.061-.034c2.127-.8,3.31-1.027,5.318-.288a.931.931,0,0,1,.606.084c1.839.951,1.777-1.276,1.459-2.187-.227-.65-.49-1.289-.735-1.932l-1.285-3.38C591.277,676.272,582.5,673.075,582.582,668.977Z" transform="translate(-567.317 -549.482)" fill="#699af1"/>
                        <path id="Path_1188" data-name="Path 1188" d="M611.963,671.265a25.816,25.816,0,0,1-9.666-4.111C601.167,669.726,608.536,672.9,611.963,671.265Z" transform="translate(-584.889 -548.316)" fill="#fff"/>
                        <path id="Path_1189" data-name="Path 1189" d="M653.456,382.27c.584-10.072-.628-21.543-7.3-29.544-5.84-7-15.049-13.91-24.3-15.174-24.022-1.2-46.138,16.448-57.333,36.752-11.685,21.193-14.782,47.477-2.177,68.95,7.173,12.221,18.348,17.887,32.446,15.024,10.63-2.159,20.982-7.707,29.4-14.462C641.452,429.95,652.188,404.122,653.456,382.27Z" transform="translate(-554.213 -337.494)" fill="#699af1"/>
                    </g>
                    <g id="Group_825" data-name="Group 825" transform="translate(28.079 5.786)">
                        <path id="Path_1190" data-name="Path 1190" d="M687.714,356.026a8.547,8.547,0,0,0-5.445-2.229,3.934,3.934,0,0,0-1.713-.24c-.375.029-.753.069-1.129.1-.387,0-.762.01-1.116.022a3.926,3.926,0,0,0-1.137.216c-5.5.662-10.947,2.094-14.8,6.4-2,2.234-3.632,5.365-1.388,8.024,2.155,2.553,5.149,1.863,7.722.45a34.983,34.983,0,0,1,9.9-3.732c2.836-.579,6.721-.1,8.892-2.367A4.827,4.827,0,0,0,687.714,356.026Z" transform="translate(-649.883 -353.544)" fill="#fff"/>
                        <path id="Path_1191" data-name="Path 1191" d="M640.3,393.393a3.656,3.656,0,0,0,.146-1.491,3.376,3.376,0,0,0-.844-2.853,3.777,3.777,0,0,0-4.907-.57,3.581,3.581,0,0,0-1.592,1.41c-.024.04-.032.083-.055.123a3.491,3.491,0,0,0-.831,3.15,4.22,4.22,0,0,0,2.664,3.026,4.285,4.285,0,0,0,3.211-.18,3.942,3.942,0,0,0,2.231-2.847Q640.527,392.075,640.3,393.393Z" transform="translate(-632.104 -375.462)" fill="#fff"/>
                    </g>
                </g>
                <g id="Group_829" data-name="Group 829">
                    <g id="Group_827" data-name="Group 827" transform="translate(1.687 134.602)">
                        <path id="Path_1192" data-name="Path 1192" d="M571.05,706.822a59.14,59.14,0,0,1,2.875,20.5c-.159,3.383-.435,7.821-2.36,10.6-1.948,2.813-5.09,4.385-7.86,6.206-5.124,3.368-9.539,7.058-8.025,13.781.911,4.051,3.937,7.23,5.674,10.909,4.052,8.582-.837,14.673-4.361,22.281a37.542,37.542,0,0,0-1.515,27.011c.344,1.125,2.152.762,1.8-.376a35.827,35.827,0,0,1-.262-21.634c1.671-5.178,5.327-9.366,7.021-14.475,3.265-9.849-3.849-14.7-6.254-23.377-3.19-11.5,12.209-12.622,16.277-20.985,4.241-8.718,1.5-22.14-1.208-30.813C572.5,705.325,570.7,705.687,571.05,706.822Z" transform="translate(-553.672 -705.766)" fill="#699af1"/>
                    </g>
                    <g id="Group_828" data-name="Group 828">
                        <path id="Path_1193" data-name="Path 1193" d="M651.4,384.846c1.566-11.391,1.213-25.714-6.084-35.239-6.21-8.106-16.4-15.76-26.7-17.168-22.827-1.14-42.881,13.737-55.427,31.863-14.789,21.365-19.5,51.021-6.99,74.425a41.7,41.7,0,0,0,10.4,13.084l-3.614.47a12.769,12.769,0,0,0-3.44.629c-1.883.818-2.508,2.821-2.9,4.673l0,.128a3.133,3.133,0,0,0,1.533,3.832,5.658,5.658,0,0,0,2.564.65c.928.045,2.376-.26,3.29.217a.83.83,0,0,0,.341.44c2.624,1.695,2.656,5.154,6.172,5.908,3.172.68,5.3-2.2,8.613-.791a.769.769,0,0,0,.719-.023,2.922,2.922,0,0,0,3.407-2.217,6.058,6.058,0,0,0-.688-3.315c-.607-1.611-1.223-3.22-1.836-4.829,11.464,1.034,23.221-3.91,32.8-9.74C635.131,434.712,648.012,409.472,651.4,384.846Zm-70.95,77.1c.245.643.508,1.283.735,1.932.318.91.38,3.138-1.459,2.187a.928.928,0,0,0-.606-.083c-2.009-.739-3.191-.514-5.318.288a4.446,4.446,0,0,1-4.061.034c-1.193-.606-1.656-1.656-2.354-2.7a9.255,9.255,0,0,0-1.372-1.809l-.061-.145a3.385,3.385,0,0,0-2.945-1.314c-1.317-.04-5.662.341-4.573-2.194a.823.823,0,0,0,.06-.449c.386-1.665.95-3.06,2.894-3.353,1.579-.238,3.166-.429,4.751-.627-.083,4.1,8.695,7.295,13.024,4.849Zm-12.166-8.886a25.816,25.816,0,0,0,9.666,4.111C574.521,458.805,567.152,455.632,568.282,453.06Zm23.165,1.946c-14.1,2.863-25.273-2.8-32.446-15.024-12.6-21.473-9.508-47.757,2.177-68.95,11.195-20.3,33.311-37.952,57.333-36.752,9.254,1.264,18.464,8.174,24.3,15.174,6.674,8,7.887,19.472,7.3,29.544-1.268,21.852-12,47.681-29.273,61.545C612.428,447.3,602.076,452.847,591.447,455.006Z" transform="translate(-548.992 -332.378)" fill="#699af1"/>
                    </g>
                </g>
            </g>
        </g>
    </g>
</svg>
