<svg xmlns="http://www.w3.org/2000/svg" width="508.5" height="411.247" viewBox="0 0 508.5 411.247">
    <g id="Group_742" data-name="Group 742" transform="translate(-54.037 -538.72)">
        <g id="Group_712" data-name="Group 712" transform="translate(54.037 538.72)">
            <g id="Group_705" data-name="Group 705" transform="translate(0 303.304)">
                <path id="Path_879" data-name="Path 879" d="M88.87,1011.139c-2.77-2.792-1.747-7.486-.016-10.6a2,2,0,0,1,.469-.549c1.173-2.3,2.431-4.873,2.454-6.79.092-7.934-5.29-12.823-10.985-16.6a27.358,27.358,0,0,1-6.946-5.842c-4.871-6.3-5.627-14.327-5.3-22.018a59.278,59.278,0,0,0-8.579,1.69c-3.185,16.505,5.524,21.327,15.4,30.377,2.272,2.082,4.387,4.03,5.185,7.161.968,3.8-.719,7.56-1.72,11.127-1.642,5.852-2.422,15.579,2.437,20.415,1.921,1.912,8.768,3.45,12.462,4.446a61.632,61.632,0,0,1,6.611-7.827C96.169,1015.38,91.606,1013.9,88.87,1011.139Z" transform="translate(-55.353 -944.535)" fill="#ffbb67"/>
                <path id="Path_880" data-name="Path 880" d="M103.636,1011.415c-5.209-.455-15.125-2.4-13.3-8.85,2.924-6.887,7.488-14.367,3.073-21.5-1.948-3.148-5.186-4.932-8.132-6.953-10.93-7.5-14.982-14.551-14.125-27.99a1.746,1.746,0,0,0-.025-.19,1.953,1.953,0,0,0-1.9-2.787,64.878,64.878,0,0,0-13.074,2.524,1.6,1.6,0,0,0-1.171,1.953c-.017.058-.055.1-.067.157-1.731,8.34-1.151,16.689,3.926,23.858,7.585,10.711,16.37,9.754,14.1,27.776-.68,5.4-3.744,11.137-.994,16.6,3.527,7,13.965,8.34,20.481,10.566a1.984,1.984,0,0,0,2.266-.7,1.791,1.791,0,0,0,.34-.324,58.469,58.469,0,0,1,9.425-10.642C105.593,1013.907,105.455,1011.574,103.636,1011.415Zm-11.22,11.14c-3.694-1-10.541-2.534-12.462-4.446-4.859-4.837-4.079-14.562-2.437-20.415,1-3.567,2.689-7.329,1.72-11.127-.8-3.132-2.914-5.08-5.185-7.162-9.877-9.049-18.586-13.872-15.4-30.377a59.261,59.261,0,0,1,8.579-1.69c-.328,7.691.428,15.72,5.3,22.018a27.357,27.357,0,0,0,6.946,5.842c5.695,3.78,11.077,8.668,10.985,16.6-.022,1.917-1.281,4.492-2.454,6.79a2,2,0,0,0-.469.549c-1.731,3.11-2.754,7.8.016,10.6,2.736,2.759,7.3,4.242,11.473,4.99A61.622,61.622,0,0,0,92.417,1022.554Z" transform="translate(-54.037 -943.133)" fill="#699af1"/>
            </g>
            <g id="Group_707" data-name="Group 707" transform="translate(484.277 297.109)">
                <path id="Path_883" data-name="Path 883" d="M711.786,940.2c-1.066.263-2.88,3.492-3.494,4.381a39.914,39.914,0,0,0-2.378,3.991l8.713,4.021c1.2-1.4,2.391-2.8,3.564-4.222a30.838,30.838,0,0,0,3.067-3.578,45.668,45.668,0,0,0-4.488-2.444C715.579,941.719,713.2,939.853,711.786,940.2Z" transform="translate(-701.294 -936.195)" fill="#ffbb67"/>
                <path id="Path_884" data-name="Path 884" d="M716.839,937.486c-2.845-1.507-6.085-4.018-9.04-1.621-3.425,2.78-5.915,7.53-7.837,11.422a1.709,1.709,0,0,0,.671,2.31,1.926,1.926,0,0,0,.7.536l11.48,5.3a1.989,1.989,0,0,0,2.314-.544q2.8-3.265,5.536-6.591c1.026-1.255,2.875-2.861,3.246-4.544C724.659,940.355,719.023,938.643,716.839,937.486Zm-.188,9.565c-1.173,1.42-2.368,2.821-3.564,4.222l-8.713-4.021a39.915,39.915,0,0,1,2.378-3.991c.614-.889,2.428-4.117,3.494-4.381,1.411-.347,3.793,1.519,4.984,2.15a45.658,45.658,0,0,1,4.488,2.444A30.852,30.852,0,0,1,716.651,947.051Z" transform="translate(-699.754 -934.874)" fill="#699af1"/>
            </g>
            <g id="Group_708" data-name="Group 708" transform="translate(13.462 143.048)">
                <path id="Path_885" data-name="Path 885" d="M84.02,734.782c-1.067.262-2.88,3.491-3.495,4.38a39.923,39.923,0,0,0-2.377,3.992l8.713,4.021c1.2-1.4,2.391-2.8,3.564-4.222a30.83,30.83,0,0,0,3.066-3.577A45.619,45.619,0,0,0,89,736.931C87.813,736.3,85.432,734.434,84.02,734.782Z" transform="translate(-73.528 -730.776)" fill="#ffbb67"/>
                <path id="Path_886" data-name="Path 886" d="M89.073,732.068c-2.845-1.508-6.086-4.018-9.04-1.621-3.425,2.779-5.916,7.529-7.837,11.421a1.71,1.71,0,0,0,.671,2.311,1.933,1.933,0,0,0,.7.535l11.479,5.3a1.99,1.99,0,0,0,2.314-.544q2.806-3.266,5.537-6.592c1.026-1.255,2.874-2.861,3.246-4.544C96.893,734.937,91.256,733.224,89.073,732.068Zm-.188,9.564c-1.173,1.421-2.368,2.821-3.564,4.222l-8.713-4.021a39.937,39.937,0,0,1,2.377-3.992c.615-.889,2.428-4.117,3.495-4.38,1.411-.348,3.793,1.519,4.984,2.149a45.555,45.555,0,0,1,4.487,2.444A30.816,30.816,0,0,1,88.885,741.632Z" transform="translate(-71.987 -729.455)" fill="#699af1"/>
            </g>
            <g id="Group_709" data-name="Group 709" transform="translate(268.253)">
                <path id="Path_887" data-name="Path 887" d="M423.748,544.046c-1.067.263-2.881,3.492-3.495,4.381a39.888,39.888,0,0,0-2.378,3.992l8.713,4.021c1.2-1.4,2.392-2.8,3.565-4.222a30.829,30.829,0,0,0,3.066-3.578,45.641,45.641,0,0,0-4.488-2.444C427.541,545.565,425.159,543.7,423.748,544.046Z" transform="translate(-413.255 -540.041)" fill="#fff"/>
                <path id="Path_888" data-name="Path 888" d="M428.8,541.332c-2.845-1.507-6.086-4.018-9.04-1.621-3.425,2.78-5.915,7.53-7.837,11.422a1.708,1.708,0,0,0,.671,2.31,1.924,1.924,0,0,0,.7.536l11.48,5.3a1.989,1.989,0,0,0,2.314-.544q2.8-3.265,5.536-6.591c1.026-1.255,2.875-2.861,3.247-4.544C436.62,544.2,430.984,542.489,428.8,541.332Zm-.188,9.564c-1.173,1.42-2.368,2.821-3.565,4.222l-8.713-4.021a39.871,39.871,0,0,1,2.378-3.992c.614-.889,2.428-4.117,3.495-4.381,1.411-.347,3.793,1.519,4.983,2.149a45.641,45.641,0,0,1,4.488,2.444A30.833,30.833,0,0,1,428.613,550.9Z" transform="translate(-411.715 -538.72)" fill="#699af1"/>
            </g>
            <g id="Group_710" data-name="Group 710" transform="translate(78.655 278.637)">
                <path id="Path_889" data-name="Path 889" d="M170.946,915.571c-1.068.262-2.881,3.492-3.5,4.381a40,40,0,0,0-2.377,3.992l8.713,4.021c1.2-1.4,2.392-2.8,3.564-4.222a30.828,30.828,0,0,0,3.066-3.578,45.682,45.682,0,0,0-4.487-2.444C174.738,917.09,172.357,915.224,170.946,915.571Z" transform="translate(-160.452 -911.565)" fill="#fff"/>
                <path id="Path_890" data-name="Path 890" d="M176,912.857c-2.845-1.507-6.085-4.018-9.04-1.62-3.425,2.779-5.915,7.529-7.837,11.42a1.711,1.711,0,0,0,.671,2.311,1.941,1.941,0,0,0,.7.536l11.479,5.3a1.988,1.988,0,0,0,2.314-.544q2.806-3.265,5.537-6.591c1.026-1.255,2.874-2.861,3.246-4.544C183.818,915.727,178.181,914.014,176,912.857Zm-.188,9.564c-1.172,1.421-2.368,2.822-3.564,4.222l-8.713-4.021a39.986,39.986,0,0,1,2.377-3.992c.615-.889,2.428-4.118,3.5-4.381,1.411-.347,3.792,1.52,4.983,2.149a45.657,45.657,0,0,1,4.487,2.444A30.814,30.814,0,0,1,175.81,922.422Z" transform="translate(-158.912 -910.244)" fill="#699af1"/>
            </g>
        </g>
        <g id="Group_741" data-name="Group 741" transform="translate(162.119 595.89)">
            <g id="Group_739" data-name="Group 739" transform="translate(0)">
                <g id="Group_716" data-name="Group 716" transform="translate(0 19.354)">
                    <g id="Group_715" data-name="Group 715" transform="translate(26.57 45.923)">
                        <rect id="Rectangle_244" data-name="Rectangle 244" width="37.938" height="72.947" rx="5.749" transform="translate(60.909 73.818) rotate(-178.654)" fill="#ef91dc"/>
                        <g id="Group_714" data-name="Group 714" transform="translate(0 14.863)">
                            <path id="Path_894" data-name="Path 894" d="M235.881,793.379a378.643,378.643,0,0,1,1.678-40.643c.406-4.261.908-8.6,2.713-12.486,2.863-6.156,6.745-6.947,13.086-9.372s19.88-8.16,23.079-6.48c0,0,5.785,3.648-1.235,8.007s-21.427,7.916-21.427,7.916,26.6-8.161,32.056-4.925c2.548,1.511,2.592,6.064-2.685,7.553s-23.109,6.1-23.109,6.1,23.989-4.237,25.445.413c1.234,3.943-1.019,7.26-8.048,7.537-4.4.173-13.469,1.464-13.469,1.464s12.477.253,14.559,1.762c1.51,1.095.212,4.449-1.047,5.089-2.845,1.444-19.644,1.98-19.644,1.98a39.467,39.467,0,0,1,2.754,11.88c.209,6.378-4.381,12.3-4.93,12.317S235.881,793.379,235.881,793.379Z" transform="translate(-234.146 -722.376)" fill="#fff"/>
                            <path id="Path_895" data-name="Path 895" d="M237.02,792.806q-.218-18.315,1.313-36.59c.466-5.524.643-11.568,3.289-16.575,1.723-3.262,4.409-4.957,7.772-6.25q5.286-2.032,10.579-4.057a84.761,84.761,0,0,1,11.176-3.668,10.2,10.2,0,0,1,3.727-.4c-.41-.055.215.068.328.115-.318-.134-.212-.08-.113-.021.344.207-.161-.154.031.021.169.152.342.3.5.46a1.828,1.828,0,0,1,.626,2.193c-.725,1.615-2.8,2.578-4.294,3.357-5.964,3.119-12.685,5.1-19.2,6.715l.908,3.293a131,131,0,0,1,23.428-5.37c1.09-.122,2.186-.215,3.284-.244.482-.013.963-.014,1.444.005.221.009.442.021.662.039l.315.029c.5.047-.335-.065.142.016.355.061.7.145,1.044.24.139.037.55.25.137.037.127.066.382.2.425.233a1.785,1.785,0,0,1,.666,1.772c-.419,2.237-3.462,2.688-5.35,3.2q-3.837,1.04-7.685,2.045-6.576,1.729-13.159,3.431c-2.16.559-1.222,3.669.908,3.293a97.449,97.449,0,0,1,17.036-1.706c.888,0,1.777.024,2.662.091a10.887,10.887,0,0,1,1.9.254c.317.067.629.15.938.244.129.04.257.087.383.136-.311-.122-.035-.016.1.059.1.055.2.116.294.174-.021-.012-.206-.013-.016-.01.352.005-.119.285.018-.021-.046.1.085.166.012-.043a3.248,3.248,0,0,1-.774,3.818c-1.756,1.5-4.363,1.513-6.535,1.648-4.348.27-8.689.865-13,1.478-1.956.277-1.4,3.316.454,3.354,2.127.044,4.255.15,6.377.306,1.51.111,3.028.235,4.522.474a17.908,17.908,0,0,1,1.884.385c.22.06.438.125.652.2s-.256-.23,0,0c.2.181.089.082.088.034a3.416,3.416,0,0,1-.24,1.363,5.079,5.079,0,0,1-.525.83c.062-.094-.077.046-.1.072-.179.17.378-.117,0,0a21.132,21.132,0,0,1-3.24.667c-2.863.4-6.14.61-9.17.787-2.122.124-4.246.229-6.37.3-.987.031-2.093,1.086-1.647,2.161A33.465,33.465,0,0,1,258.3,778.4c.167,4.186-1.767,7.853-4,10.991-.265.371.257-.358.772-.185-.049-.016-.131.014-.18.013a8.844,8.844,0,0,0-.922.082q-1.659.152-3.318.312-4.615.439-9.229.888-3.057.3-6.113.593a1.755,1.755,0,0,0-1.708,1.708,1.719,1.719,0,0,0,1.708,1.707q7.67-.747,15.342-1.481c1.178-.112,2.356-.225,3.535-.331a3.666,3.666,0,0,0,2.3-.682,13.7,13.7,0,0,0,2.821-4.012,21.117,21.117,0,0,0,2.308-7.225,25.7,25.7,0,0,0-1.041-9.431,39.292,39.292,0,0,0-1.669-5.083l-1.646,2.161a141.136,141.136,0,0,0,17.039-1.292,10.944,10.944,0,0,0,3.387-.883,5.877,5.877,0,0,0,2.643-5.26c-.226-3.9-5.21-3.993-8.111-4.292-2.929-.3-5.882-.458-8.827-.518l.454,3.354c1.462-.208,2.632-.359,4.219-.556,2.617-.324,5.241-.637,7.873-.8,2.767-.172,5.722-.331,8.084-1.969a6.456,6.456,0,0,0,2.9-5.722c-.111-1.769-.641-3.351-2.261-4.238a12.09,12.09,0,0,0-4.762-1.135,62.441,62.441,0,0,0-12.312.505c-2.867.324-5.736.708-8.578,1.208l.908,3.293q6.067-1.569,12.13-3.161,4.214-1.107,8.423-2.236c2.748-.743,5.842-1.422,7.39-4.085a5.348,5.348,0,0,0-1.786-7.317,11.026,11.026,0,0,0-5.705-.958c-5.537.144-11.1,1.423-16.46,2.716-3.745.9-7.477,1.892-11.161,3.02a1.709,1.709,0,0,0,.908,3.293,98.1,98.1,0,0,0,18.77-6.435c3.357-1.607,8.5-4.453,7.184-8.977a5.74,5.74,0,0,0-4.89-4.15c-3.538-.26-7.387,1.253-10.668,2.383-3.886,1.339-7.689,2.893-11.523,4.366s-8.075,2.606-11.092,5.553c-3.845,3.754-5.119,9.382-5.779,14.515-.926,7.21-1.338,14.522-1.676,21.779q-.522,11.18-.382,22.377C233.631,795,237.046,795.008,237.02,792.806Z" transform="translate(-233.577 -721.804)" fill="#699af1"/>
                        </g>
                    </g>
                    <path id="Path_896" data-name="Path 896" d="M286.146,713.118a3.115,3.115,0,1,0,3.845-2.15A3.115,3.115,0,0,0,286.146,713.118Z" transform="translate(-220.12 -658.279)" fill="#fff"/>
                    <path id="Path_897" data-name="Path 897" d="M253.191,679.608l-32.549-32.785a1.708,1.708,0,0,0-2.414,2.414l32.549,32.785a1.708,1.708,0,0,0,2.415-2.414Z" transform="translate(-203.044 -642.146)" fill="#699af1"/>
                    <path id="Path_898" data-name="Path 898" d="M244.368,691.389l-44.11-12.744c-2.116-.61-3.019,2.683-.908,3.293l44.11,12.744c2.116.611,3.019-2.683.908-3.293Z" transform="translate(-198.149 -650.209)" fill="#699af1"/>
                    <path id="Path_899" data-name="Path 899" d="M246.272,708.962l-23.363,3.852c-2.164.356-1.246,3.648.907,3.293l23.364-3.852c2.163-.356,1.245-3.648-.908-3.293Z" transform="translate(-204.03 -657.801)" fill="#699af1"/>
                    <path id="Path_900" data-name="Path 900" d="M272.766,675.12Q271.4,658.8,271.492,642.4a1.708,1.708,0,0,0-3.415,0q-.1,16.379,1.273,32.716c.182,2.174,3.6,2.194,3.415,0Z" transform="translate(-215.631 -640.755)" fill="#699af1"/>
                    <path id="Path_901" data-name="Path 901" d="M292.57,667.893l-9.409,11.087a1.753,1.753,0,0,0,0,2.415,1.722,1.722,0,0,0,2.415,0l9.409-11.087a1.752,1.752,0,0,0,0-2.415,1.722,1.722,0,0,0-2.414,0Z" transform="translate(-219.283 -647.416)" fill="#699af1"/>
                </g>
                <g id="Group_720" data-name="Group 720" transform="translate(204.985)">
                    <path id="Path_902" data-name="Path 902" d="M588.289,624.174c-6.78-4.44-14.607-6.788-22.287-9.134a1.5,1.5,0,0,0-1.908.779,1.563,1.563,0,0,0-.186.054q-46.545,24.492-90.491,53.376a2.114,2.114,0,0,0-1.933,1.939,1.778,1.778,0,0,0,.117.879c5.632,19.954,24.081,38.491,45.4,39.124a1.561,1.561,0,0,0,1.282-.513,1.97,1.97,0,0,0,1.412-.959c16.29-27.347,31.586-55.436,44.424-84.591a110.619,110.619,0,0,0,7.015,43.124,1.955,1.955,0,0,0,.037.238c.1.257.209.507.32.758.082.214.147.431.23.645a1.981,1.981,0,0,0,.423.656c2.829,4.888,8.58,7.75,12.315,1.153,1.987-3.509,1.462-7.8.887-11.6-.1-.63-.247-1.25-.353-1.877,3.055,4.1,6.5,6.289,9.7,2.761,3.055-3.37.589-9.419-.841-12.922-.851-2.084-1.81-4.11-2.832-6.1a16.017,16.017,0,0,0,3.486,1.59c3.679,1.076,6.256-1.7,5.822-5.323C599.636,632.463,592.723,627.077,588.289,624.174Zm-112.224,49.11a40.658,40.658,0,0,1,22.3,10.618c6.8,6.528,10.542,15.472,15.786,23.2C496.664,705.239,481.7,689.613,476.064,673.283Zm41.659,32.153c-6.234-8.91-10.443-19.262-18.954-26.378a43.828,43.828,0,0,0-19.26-9.106q39.884-25.982,81.906-48.345C548.823,650.5,533.777,678.331,517.724,705.436Zm76.971-70.074c.454,3.814-2.254,2.491-3.989,1.161a50.049,50.049,0,0,1-9.559-9.857c-1.5-2-4.654.28-3.146,2.29.054.072.118.153.172.226a1.843,1.843,0,0,0,.182.36c5.209,6.6,9.967,13.946,12.669,21.966.775,2.3,1.953,3.745-.488,4.709-2.6,1.028-3.273-1.916-4.444-3.857a67.111,67.111,0,0,1-4.354-8.691c-.008-.029-.014-.06-.023-.09a1.872,1.872,0,0,0-.091-.177c-.649-1.555-1.269-3.124-1.838-4.72-.841-2.359-4.481-.989-3.64,1.371.335.94,1.042,2.891,2.023,5.271a133.422,133.422,0,0,1,2.991,13.222,50.965,50.965,0,0,1,.742,5.346,13.8,13.8,0,0,1-.069,3.627c-3.119,3.46-5.22,4.045-6.336,1.852a1.94,1.94,0,0,0-.137-.85,106.461,106.461,0,0,1-7.02-48.726c7.712,2.392,15.622,5.167,21.723,10.559C591.172,631.334,594.514,633.852,594.694,635.362Z" transform="translate(-471.469 -614.949)" fill="#699af1"/>
                    <g id="Group_719" data-name="Group 719" transform="translate(4.595 4.846)">
                        <g id="Group_717" data-name="Group 717">
                            <path id="Path_903" data-name="Path 903" d="M477.6,692.73c5.631,16.329,20.6,31.956,38.089,33.818-5.243-7.727-8.986-16.671-15.786-23.2A40.658,40.658,0,0,0,477.6,692.73Z" transform="translate(-477.596 -639.241)" fill="#f06465"/>
                            <path id="Path_904" data-name="Path 904" d="M501.45,681.278c8.512,7.116,12.72,17.468,18.954,26.378,16.053-27.1,31.1-54.938,43.692-83.829q-42.036,22.341-81.906,48.345A43.829,43.829,0,0,1,501.45,681.278Z" transform="translate(-478.745 -622.014)" fill="#fff"/>
                            <path id="Path_905" data-name="Path 905" d="M600.491,621.41a106.462,106.462,0,0,0,7.02,48.726,1.94,1.94,0,0,1,.137.85c1.116,2.194,3.217,1.609,6.336-1.852a13.792,13.792,0,0,0,.069-3.627,50.988,50.988,0,0,0-.742-5.347,133.467,133.467,0,0,0-2.991-13.222c-.982-2.38-1.688-4.33-2.023-5.271-.841-2.359,2.8-3.73,3.64-1.371.568,1.6,1.189,3.165,1.837,4.72a1.866,1.866,0,0,1,.091.177c.008.03.014.061.022.09a67.108,67.108,0,0,0,4.354,8.691c1.171,1.941,1.841,4.885,4.444,3.857,2.441-.964,1.263-2.41.488-4.709-2.7-8.02-7.46-15.366-12.669-21.966a1.838,1.838,0,0,1-.182-.36c-.055-.073-.119-.154-.172-.226-1.507-2.011,1.647-4.289,3.146-2.29a50.047,50.047,0,0,0,9.559,9.857c1.735,1.331,4.443,2.654,3.989-1.161-.18-1.51-3.523-4.028-4.632-5.008C616.113,626.577,608.2,623.8,600.491,621.41Z" transform="translate(-508.215 -621.41)" fill="#fff"/>
                        </g>
                        <g id="Group_718" data-name="Group 718" transform="translate(3.445 1.813)">
                            <path id="Path_906" data-name="Path 906" d="M576.489,645.323q5.154-10.655,9.892-21.5c-5.052,2.684-10.052,5.456-15.056,8.221a40.4,40.4,0,0,1,4.5,10.4Q576.193,643.876,576.489,645.323Z" transform="translate(-504.475 -623.827)" fill="#ffbb67"/>
                            <path id="Path_907" data-name="Path 907" d="M541.646,694.191c6.608-11.659,12.979-23.461,19-35.434a62.227,62.227,0,0,0-8.721-17.977q-13,7.333-25.772,15.055A162.265,162.265,0,0,1,541.646,694.191Z" transform="translate(-493.181 -628.066)" fill="#ffbb67"/>
                            <path id="Path_908" data-name="Path 908" d="M501.45,693.906a44.029,44.029,0,0,1,7.449,8.256,85.919,85.919,0,0,0-10.253-27.827c-5.509,3.449-11.007,6.916-16.455,10.465A43.829,43.829,0,0,1,501.45,693.906Z" transform="translate(-482.19 -636.455)" fill="#ffbb67"/>
                        </g>
                    </g>
                </g>
                <g id="Group_728" data-name="Group 728" transform="translate(69.768 57.268)">
                    <path id="Path_909" data-name="Path 909" d="M386.838,731.249a45.015,45.015,0,0,1-29.9,15.956c-4.243.435-8.657.486-12.673,2.083-7.534,3-11.665,10.415-13.992,17.787-2.471,7.827-3.411,16.6-8.62,23.265a14.75,14.75,0,0,1-9.592,5.942,10.081,10.081,0,0,1-9.382-3.45,1.718,1.718,0,0,0-2.415,0,1.747,1.747,0,0,0,0,2.414c4.525,5.737,13.494,5.665,19.18,1.806,7.119-4.831,9.923-13.327,11.985-21.261,2.005-7.714,4-16.9,11.047-21.723,3.577-2.446,7.846-2.872,12.05-3.231a55.811,55.811,0,0,0,12.3-2.224,48.675,48.675,0,0,0,22.42-14.95c1.4-1.672-1-4.1-2.415-2.415Z" transform="translate(-293.326 -701.151)" fill="#699af1"/>
                    <g id="Group_721" data-name="Group 721" transform="translate(0 16.714)">
                        <path id="Path_910" data-name="Path 910" d="M314.353,808.687c7.138-1.912,13.992-6.159,17.34-12.747,5.457-10.738.869-25.536,8.985-34.436,3.816-4.185,9.542-5.9,14.73-8.172a63.048,63.048,0,0,0,34.578-39.041l83.4,15.578c5.7,11.353,6.871,29.21,3.567,37.546s-9.223,16.008-9.425,24.974c-.118,5.294,1.759,10.934-.577,15.687-2.74,5.575-10.006,7.3-13.869,12.166-7.08,8.916.065,23.817-7.086,32.676-5.023,6.222-14.412,6.123-22.332,5.023s-16.865-2.4-23.153,2.542c-8.251,6.479-8.375,21.246-18.264,24.747-6.817,2.412-13.911-2.294-19.613-6.74-25.86-20.161-52.188-40.818-70.315-68.143C299.71,810.478,307.213,810.6,314.353,808.687Z" transform="translate(-291.461 -713.767)" fill="#699af1"/>
                        <path id="Path_911" data-name="Path 911" d="M378.124,886.16c-5.576,0-11.16-3.671-16.054-7.487-25.6-19.956-52.065-40.592-70.415-68.252l-.479-.722.867.016c7.263.132,14.775.268,21.906-1.642,7.865-2.106,14.08-6.667,17.052-12.513,2.362-4.649,2.818-10.18,3.26-15.53.564-6.839,1.148-13.911,5.794-19.007,3.148-3.453,7.57-5.261,11.845-7.01,1.021-.418,2.041-.835,3.04-1.273a62.437,62.437,0,0,0,34.325-38.755l.117-.391.4.075,83.622,15.62.1.2c5.95,11.862,6.8,29.8,3.583,37.918-1.054,2.659-2.387,5.281-3.677,7.816-2.743,5.4-5.581,10.975-5.716,17a43.981,43.981,0,0,0,.3,5.131c.354,3.643.719,7.411-.919,10.747-1.588,3.231-4.654,5.221-7.619,7.145a25.529,25.529,0,0,0-6.3,5.1c-3.432,4.322-3.424,10.275-3.418,16.032.008,5.939.014,12.081-3.671,16.647-5.431,6.729-15.585,6.182-22.747,5.188l-.212-.029c-7.743-1.076-16.517-2.3-22.6,2.479-3.577,2.81-5.631,7.306-7.618,11.654-2.506,5.484-5.1,11.154-10.774,13.164A11.859,11.859,0,0,1,378.124,886.16ZM292.9,810.641c18.248,27.173,44.419,47.578,69.733,67.313,5.87,4.578,12.741,8.95,19.18,6.67,5.316-1.881,7.712-7.128,10.251-12.684,2.032-4.447,4.132-9.046,7.884-11.991,6.385-5.014,15.361-3.767,23.285-2.665l.211.029c6.946.966,16.773,1.511,21.915-4.857,3.483-4.315,3.475-10.293,3.469-16.074-.008-5.913-.015-12.027,3.615-16.6a26.211,26.211,0,0,1,6.521-5.3c2.992-1.943,5.82-3.778,7.3-6.784,1.525-3.1,1.189-6.579.831-10.258a44.665,44.665,0,0,1-.3-5.239c.14-6.232,3.025-11.9,5.815-17.391,1.279-2.517,2.6-5.121,3.642-7.739,3.127-7.892,2.3-25.32-3.451-36.973l-82.776-15.462A63.36,63.36,0,0,1,355.3,753.574c-1.006.441-2.032.86-3.06,1.282-4.183,1.711-8.507,3.48-11.517,6.781-4.437,4.866-4.982,11.473-5.56,18.469-.448,5.437-.912,11.058-3.356,15.867-3.088,6.077-9.513,10.809-17.628,12.981C307.216,810.819,299.948,810.765,292.9,810.641Z" transform="translate(-291.175 -713.593)" fill="#699af1"/>
                    </g>
                    <g id="Group_722" data-name="Group 722" transform="translate(91.228 0.035)">
                        <path id="Path_912" data-name="Path 912" d="M421.53,702.541a32.56,32.56,0,0,1,29.261-10.136l5.512,6.518c-9.634-2.26-20.025,1.554-27.287,8.275s-11.715,16-14.407,25.526A32.563,32.563,0,0,1,421.53,702.541Z" transform="translate(-412.965 -691.505)" fill="#699af1"/>
                        <path id="Path_913" data-name="Path 913" d="M414.465,734.234l-.443-1.533a33.093,33.093,0,0,1,7.019-30.614h0a33.094,33.094,0,0,1,29.678-10.281l.163.028,6.511,7.7-1.342-.315c-8.881-2.084-19.181,1.045-26.874,8.166-6.4,5.925-11.2,14.442-14.278,25.316Zm7.254-31.538a32.227,32.227,0,0,0-7.23,28.167c3.132-10.283,7.861-18.4,14.069-24.148,7.541-6.98,17.536-10.224,26.4-8.652l-4.555-5.386a32.166,32.166,0,0,0-28.683,10.02Z" transform="translate(-412.816 -691.355)" fill="#699af1"/>
                    </g>
                    <g id="Group_723" data-name="Group 723" transform="translate(83.667 6.26)">
                        <path id="Path_914" data-name="Path 914" d="M462.332,821.667l-1.5-4.611,11.88-44.133,5.958-37.888-29.29-34.163-6.508.026a34.7,34.7,0,0,0-31.554,21l-.092.209s-8.452,34.633-7.143,47.142c1.631,15.6,12.015,18.229,13.451,24.612,1.785,7.937-4.34,19.3-4.34,19.3S429.449,848.062,462.332,821.667Z" transform="translate(-403.037 -699.959)" fill="#fff"/>
                        <path id="Path_915" data-name="Path 915" d="M438.721,832.146a24.446,24.446,0,0,1-5.577-.639c-13.945-3.255-20.793-17.654-21.078-18.265l-.193-.414.216-.4c.06-.111,5.943-11.163,4.254-18.673-.479-2.128-2.111-3.837-4.178-6-3.668-3.838-8.233-8.616-9.289-18.717-1.309-12.522,6.816-46.031,7.163-47.451l.144-.361a35.678,35.678,0,0,1,32.384-21.54l6.929-.028,29.837,34.8-6.043,38.4-11.81,43.872,1.607,4.952-.49.394C454.251,828.774,446.245,832.146,438.721,832.146Zm-24.806-19.28c1.2,2.315,7.816,14.114,19.656,16.87,8.386,1.952,17.6-.973,27.4-8.692l-1.386-4.268,11.938-44.347L477.4,735,448.662,701.48l-6.088.025a33.855,33.855,0,0,0-30.723,20.451l-.06.137c-.444,1.837-8.35,34.826-7.1,46.753.992,9.482,5.318,14.01,8.794,17.649,2.173,2.273,4.049,4.237,4.639,6.859C419.783,800.745,415.031,810.676,413.915,812.866Z" transform="translate(-402.734 -699.655)" fill="#699af1"/>
                    </g>
                    <path id="Path_916" data-name="Path 916" d="M422.242,722.342a3.02,3.02,0,0,1,1.936-.628,7.736,7.736,0,0,1,2.026.232c.062.014.12.035.182.049a7.911,7.911,0,0,1,.992.309,7.163,7.163,0,0,1,1.108.541c.038.023.078.039.115.061a7.943,7.943,0,0,1,1.109.837c.038.034.084.057.122.092l-.019-.008c.056.052.118.088.174.142a4.22,4.22,0,0,1,1.319,2.214,2.363,2.363,0,0,1-.922,2.423,2.5,2.5,0,0,1-1.575.136l-2.273-.3a10.067,10.067,0,0,1-2.881-.678,3.876,3.876,0,0,1-2.1-2.175A3.116,3.116,0,0,1,422.242,722.342Z" transform="translate(-323.727 -698.909)" fill="#699af1"/>
                    <path id="Path_917" data-name="Path 917" d="M457.407,728.911a3.018,3.018,0,0,1,1.935-.628,7.711,7.711,0,0,1,2.026.232c.063.014.121.035.183.048a7.947,7.947,0,0,1,.992.309,7.137,7.137,0,0,1,1.108.542c.037.023.077.038.115.061a7.9,7.9,0,0,1,1.109.836c.038.035.084.057.122.092l-.02-.008c.057.053.119.088.174.142a4.212,4.212,0,0,1,1.32,2.213,2.364,2.364,0,0,1-.922,2.424,2.507,2.507,0,0,1-1.576.136l-2.272-.3a10.039,10.039,0,0,1-2.881-.678,3.873,3.873,0,0,1-2.1-2.174A3.117,3.117,0,0,1,457.407,728.911Z" transform="translate(-332.519 -700.551)" fill="#699af1"/>
                    <g id="Group_724" data-name="Group 724" transform="translate(89.853 90.394)">
                        <path id="Path_918" data-name="Path 918" d="M413.918,814.254l5.386,6.119c.971,1.992,1.381,2.491.781,4.624,10.221.532,18.531,1.014,27.139-4.522C434.572,821.641,426.217,821.437,413.918,814.254Z" transform="translate(-411.715 -812.44)" fill="#699af1"/>
                        <path id="Path_919" data-name="Path 919" d="M427.916,825.157c-2.646,0-5.4-.143-8.34-.3l-.817-.043.154-.548c.5-1.774.266-2.244-.5-3.8l-.221-.447-7.207-8.188,2.432,1.421c12.666,7.4,21.3,7.241,33.035,6.161l1.854-.171-1.566,1.007C440.534,824.243,434.586,825.157,427.916,825.157Zm-7.987-1.19c9.348.487,16.9.829,24.629-3.468-10.221.854-18.315.682-29.278-5.157l3.7,4.227.245.5C419.946,821.524,420.312,822.263,419.929,823.967Z" transform="translate(-410.981 -811.836)" fill="#699af1"/>
                    </g>
                    <g id="Group_725" data-name="Group 725" transform="translate(128.019)">
                        <path id="Path_920" data-name="Path 920" d="M519.161,736.634c3.356,24.5-14.388,46.278-37.864,54.061l6.059-34.547c-17.983-16.678-25.577-40.645-24.827-63.689C494.788,688.011,515.806,712.13,519.161,736.634Z" transform="translate(-462.023 -691.462)" fill="#699af1"/>
                        <path id="Path_921" data-name="Path 921" d="M480.565,791.212l6.148-35.053c-16.575-15.481-25.608-38.745-24.792-63.869l.013-.384.381-.052c19.022-2.626,31.989,4.718,39.517,11.339a54.626,54.626,0,0,1,17.628,33.225c3.18,23.224-12.873,46.167-38.172,54.555ZM462.821,692.7c-.708,24.806,8.28,47.733,24.693,62.955l.181.169-5.969,34.035c24.463-8.443,39.922-30.755,36.832-53.322a53.7,53.7,0,0,0-17.328-32.664C493.9,697.426,481.287,690.281,462.821,692.7Z" transform="translate(-461.871 -691.308)" fill="#699af1"/>
                    </g>
                    <g id="Group_727" data-name="Group 727" transform="translate(140.498 56.904)">
                        <g id="Group_726" data-name="Group 726">
                            <path id="Path_922" data-name="Path 922" d="M480.691,796.975c4.743,1.643,11.873.39,14.781-1.468a15.449,15.449,0,0,0,7.273-10.415c.993-4.624-.253-9.85-3.775-13s-9.371-3.676-13-.64" transform="translate(-479.055 -767.742)" fill="#fff"/>
                            <path id="Path_923" data-name="Path 923" d="M479.691,798.06a21.748,21.748,0,0,0,12.462-.119,16.7,16.7,0,0,0,9.094-6.688c4.695-6.855,4.04-18.166-3.8-22.5a11.91,11.91,0,0,0-13.227.928,1.72,1.72,0,0,0,0,2.415,1.747,1.747,0,0,0,2.415,0,8.364,8.364,0,0,1,8.8-.547,10.514,10.514,0,0,1,5.287,8.149c.8,6.134-2.893,12.854-8.912,14.782a18.577,18.577,0,0,1-11.213.289c-2.092-.691-2.988,2.605-.908,3.293Z" transform="translate(-478.51 -767.181)" fill="#699af1"/>
                        </g>
                        <path id="Path_924" data-name="Path 924" d="M496.009,777.672a15.729,15.729,0,0,0-13.961,6.769c-1.116,1.612,1.346,3.433,2.682,2.069.815-.832,1.641-1.785,2.746-1.89-.22.021.13.017.2.019.285,0-.179-.053.095.007.067.015.391.121.19.04.2.08.086.026.171.1.037.033.275.312.11.119.058.068.117.223.045.047a2.372,2.372,0,0,1,.114.412c.057.264.015-.344.013.155a4.084,4.084,0,0,1-.159,1.364,9.979,9.979,0,0,1-.55,1.63,3.982,3.982,0,0,1-1.011,1.451,1.62,1.62,0,0,1-1.174.421,1.707,1.707,0,0,0,0,3.415,5.758,5.758,0,0,0,5.089-3.466,9.683,9.683,0,0,0,1.13-5.622,4.156,4.156,0,0,0-4.156-3.494c-2.167-.014-3.837,1.414-5.268,2.875L485,786.165a12.243,12.243,0,0,1,11.012-5.077,1.721,1.721,0,0,0,1.708-1.708,1.742,1.742,0,0,0-1.708-1.708Z" transform="translate(-479.324 -769.792)" fill="#699af1"/>
                    </g>
                    <path id="Path_925" data-name="Path 925" d="M442.269,750.858a16.048,16.048,0,1,0,15.684-12.968,16.279,16.279,0,0,0-15.684,12.968c-.426,2.146,2.865,3.065,3.293.908a12.865,12.865,0,0,1,10.375-10.3,12.652,12.652,0,1,1-10.375,10.3C445.938,749.617,442.648,748.693,442.269,750.858Z" transform="translate(-328.887 -702.954)" fill="#699af1"/>
                    <path id="Path_926" data-name="Path 926" d="M395.7,743.072A16.048,16.048,0,1,0,411.386,730.1,16.279,16.279,0,0,0,395.7,743.072c-.425,2.146,2.866,3.065,3.293.907a12.866,12.866,0,0,1,10.375-10.3,12.652,12.652,0,1,1-10.375,10.3C399.372,741.83,396.081,740.907,395.7,743.072Z" transform="translate(-317.245 -701.007)" fill="#699af1"/>
                </g>
                <g id="Group_732" data-name="Group 732" transform="translate(272.04 134.001)">
                    <g id="Group_729" data-name="Group 729">
                        <path id="Path_927" data-name="Path 927" d="M565.369,804.082c1.995-1.254,4.748-.511,6.483,1.082s2.687,3.841,3.59,6.018q1.945,4.69,3.891,9.381c.615,1.48,1.885,3.269,3.376,2.685a3.127,3.127,0,0,0,1.474-1.856q3.768-8.76,6.724-17.841c.677-2.08,1.364-4.249,2.857-5.848s4.054-2.438,5.92-1.293a4.844,4.844,0,0,1,2.053,3.777,14.319,14.319,0,0,1-.56,4.408q-2.247,9.578-4.492,19.156a8.722,8.722,0,0,1,6.8,12.35c3.476,3.061,4.819,8,4.585,12.625s.932,13.083-.658,17.434l-27.881,2.79c-3.055-3.839-9.113-9.82-10.432-14.545s-.192-10.5,3.922-13.174c1.035-.672,2.263-1.172,2.92-2.218,1.09-1.739.075-3.985-.929-5.776q-5.083-9.067-9.813-18.324a15.966,15.966,0,0,1-2.012-5.59A5.53,5.53,0,0,1,565.369,804.082Z" transform="translate(-561.447 -794.186)" fill="#fff"/>
                        <path id="Path_928" data-name="Path 928" d="M565.662,804.991c2.372-1.354,4.82.845,5.976,2.777a62.04,62.04,0,0,1,3.618,8.2c.62,1.5,1.231,2.995,1.861,4.486a8.025,8.025,0,0,0,2.021,3.068,3.57,3.57,0,0,0,3.456.81,4.581,4.581,0,0,0,2.579-2.84c2.553-5.9,4.81-11.936,6.81-18.05.724-2.214,1.5-5.113,3.856-6.131,2.8-1.21,3.853,1.64,3.593,3.928a43.939,43.939,0,0,1-1.083,4.953l-1.276,5.442q-1.3,5.551-2.6,11.1a1.723,1.723,0,0,0,1.192,2.1c4.6.682,7.754,5.365,5.782,9.842a1.768,1.768,0,0,0,.267,2.069,12.479,12.479,0,0,1,3.715,6.651c.551,2.44.3,4.888.35,7.363.051,2.528.21,5.053.214,7.582a20.491,20.491,0,0,1-.791,6.8l1.647-1.253-24.381,2.439-3.5.35,1.208.5c-4.816-6.008-13.115-12.769-9.688-21.426a8.43,8.43,0,0,1,3.854-4.225c2.284-1.358,3.583-3.323,3.074-6.049-.489-2.622-2.269-5.044-3.534-7.342q-2.186-3.971-4.3-7.979c-1.478-2.8-3.058-5.581-4.35-8.468-.875-1.953-1.737-5.209.439-6.7,1.8-1.233.1-4.194-1.724-2.948a7.161,7.161,0,0,0-3.052,5.764c-.122,2.635,1.106,5.119,2.269,7.4q4.015,7.881,8.307,15.618c.618,1.117,1.274,2.22,1.858,3.355.477.925,1.232,2.4.578,3.4-.49.754-1.585,1.13-2.307,1.6a10.58,10.58,0,0,0-2.478,2.234,14.522,14.522,0,0,0-2.385,12.259c.973,4.2,4.092,7.76,6.815,10.962,1.342,1.578,2.656,3.209,4.048,4.741a2.021,2.021,0,0,0,1.961.645l14.029-1.4,13.263-1.328a1.8,1.8,0,0,0,1.646-1.253,23.126,23.126,0,0,0,.914-7.542c0-2.782-.194-5.558-.224-8.339a33.377,33.377,0,0,0-.587-8.191,15.488,15.488,0,0,0-4.468-7.648l.267,2.069a10.747,10.747,0,0,0-.347-9.778,10.556,10.556,0,0,0-7.477-5.081l1.193,2.1,2.5-10.666c.8-3.412,1.763-6.829,2.376-10.28.516-2.91.256-6.31-2.4-8.145-2.426-1.676-5.671-.907-7.773.926-2.291,2-3.128,5.106-4.045,7.881q-1.63,4.94-3.505,9.794-.859,2.224-1.769,4.427c-.19.46-1.255,3.542-1.622,3.5-.77-.1-1.4-2.223-1.621-2.752l-2.2-5.3c-1.328-3.2-2.431-6.865-4.945-9.369-2.3-2.288-5.893-3.279-8.82-1.607C562.03,803.132,563.748,806.084,565.662,804.991Z" transform="translate(-560.878 -793.621)" fill="#699af1"/>
                    </g>
                    <path id="Path_929" data-name="Path 929" d="M611.229,858.543a7.44,7.44,0,0,1-4.948-3.451,1.723,1.723,0,0,0-2.681-.346c-1.793,2-4.222,4.059-6.878,4.757-.841.221-1.858.259-2.11-.74a3.39,3.39,0,0,1,1.144-2.932c1.086-1.195,2.338-2.251,3.518-3.35s2.3-2.216,3.529-3.236c1.479-1.233,4.025-2.307,5.587-.613,1.492,1.62,3.9-.8,2.415-2.415a6.863,6.863,0,0,0-7.369-1.33c-2.918,1.214-5.19,3.888-7.461,6-2.194,2.041-5,4.318-4.824,7.64a4.736,4.736,0,0,0,1.894,3.682,5.346,5.346,0,0,0,4.315.652c3.3-.724,6.447-3.239,8.653-5.7l-2.681-.345a10.817,10.817,0,0,0,6.988,5.02c2.144.45,3.061-2.841.908-3.293Z" transform="translate(-568.445 -806.309)" fill="#699af1"/>
                    <g id="Group_730" data-name="Group 730" transform="translate(22.519 27.83)">
                        <path id="Path_930" data-name="Path 930" d="M595.7,850.094a4.784,4.784,0,0,1-2.615-4.135,7.865,7.865,0,0,1,1.573-4.8,23.409,23.409,0,0,1,3.526-3.736,21.871,21.871,0,0,1,6.2-4.461" transform="translate(-591.447 -831.286)" fill="#fff"/>
                        <path id="Path_931" data-name="Path 931" d="M596.021,848.063c-3.133-1.519-1.471-5.492.238-7.443a41.625,41.625,0,0,1,3.912-3.742,16.978,16.978,0,0,1,4.534-3,1.718,1.718,0,0,0,.613-2.336,1.754,1.754,0,0,0-2.336-.613,20.726,20.726,0,0,0-5.559,3.832,29.73,29.73,0,0,0-4.781,4.978c-2.413,3.457-2.705,9.161,1.655,11.274a1.752,1.752,0,0,0,2.336-.612,1.723,1.723,0,0,0-.612-2.336Z" transform="translate(-590.903 -830.729)" fill="#699af1"/>
                    </g>
                    <g id="Group_731" data-name="Group 731" transform="translate(12.428 39.067)">
                        <path id="Path_932" data-name="Path 932" d="M579.728,853.091c3.85-1.516,7.9-3.79,11.913-4.82a5.842,5.842,0,0,1,2.449-.258,3.607,3.607,0,0,1,2.627,2.339,5.6,5.6,0,0,1-.031,3.615,10.194,10.194,0,0,1-4.613,5.413,25.672,25.672,0,0,1-6.772,2.575,9.587,9.587,0,0,1,11.586,8.174" transform="translate(-578.019 -846.274)" fill="#fff"/>
                        <path id="Path_933" data-name="Path 933" d="M579.613,854.175c2.753-1.1,5.4-2.449,8.148-3.552a26.559,26.559,0,0,1,4.167-1.37c1.191-.26,2.168-.076,2.629,1.164.843,2.268-1.075,4.779-2.728,6.111-2.157,1.738-4.924,2.517-7.552,3.216-2.142.57-1.229,3.722.908,3.293a8.032,8.032,0,0,1,9.485,6.982,1.719,1.719,0,0,0,2.1,1.193,1.753,1.753,0,0,0,1.193-2.1,11.43,11.43,0,0,0-13.687-9.367l.908,3.293c3.368-.9,6.748-2.027,9.4-4.385,2.446-2.178,4.346-5.826,3.268-9.142a5.493,5.493,0,0,0-3.088-3.454c-1.775-.725-3.718-.169-5.461.385-3.659,1.163-7.04,3.02-10.6,4.44a1.761,1.761,0,0,0-1.192,2.1,1.719,1.719,0,0,0,2.1,1.193Z" transform="translate(-577.449 -845.711)" fill="#699af1"/>
                    </g>
                </g>
                <g id="Group_734" data-name="Group 734" transform="translate(13.614 143.329)">
                    <g id="Group_733" data-name="Group 733">
                        <path id="Path_934" data-name="Path 934" d="M525.606,868.825l-35.641,3.691-2.746,48.817-.648,5.374s-13.1-31.238-20.924-50.674c-3.525-8.75-8.4-13.645-12.219-15.145L413.444,844.96,372.407,836.1l-25.322-1.349a70.76,70.76,0,0,0-31.412,5.525l-53.286,29.834,1.542-61.77-37.686,1.868s-11.908,82.288-6.035,101.7c5.208,17.211,26.081,14.391,36.82,10.74,19.635-6.675,44.766-18.381,54.678-23.04a55.051,55.051,0,0,0-5.6,16.071c-1.8,10.067,1.934,28.387,1.934,28.387l-.233,71.607H412.838l19.641-84.108c6.787,16.536,29.4,64.208,44.548,75.539,14.724,11.012,49.078,6.833,52.56-31.653C532.135,947.265,525.606,868.825,525.606,868.825Z" transform="translate(-216.872 -806.629)" fill="#fff"/>
                        <path id="Path_935" data-name="Path 935" d="M531.165,945.794c-.252-10.875-.751-21.745-1.352-32.605q-1.223-22.1-3.006-44.177c-.021-.252-.041-.5-.062-.756-.07-.845-.728-1.809-1.708-1.708l-31.178,3.229-4.463.462a1.761,1.761,0,0,0-1.708,1.708q-.554,9.833-1.106,19.667-.754,13.405-1.508,26.811c-.017.305-.044.608-.065.913q-4.58-10.963-9.127-21.937-4.435-10.735-8.8-21.5c-2.651-6.571-6.583-14.247-13.536-17.133s-13.966-5.566-20.945-8.347l-13.917-5.544c-1.8-.717-3.619-1.625-5.482-2.161-2.785-.8-5.733-1.237-8.564-1.849l-15.732-3.4-13.407-2.9a31.961,31.961,0,0,0-5.131-.832c-8.615-.459-17.246-1.135-25.871-1.349-10.036-.248-20.913,1.435-30.054,5.75-1.662.784-3.245,1.789-4.848,2.686l-25.622,14.346L263.6,866.585q.224-8.951.447-17.9l.83-33.259q.1-3.826.191-7.654a1.558,1.558,0,0,0-.362-1.084,1.462,1.462,0,0,0-1.346-.624l-32.965,1.633-4.721.234a1.732,1.732,0,0,0-1.646,1.253c-1.046,7.234-1.965,14.488-2.839,21.745-1.753,14.555-3.281,29.152-4.2,43.786-.436,6.921-.749,13.861-.671,20.8a68.67,68.67,0,0,0,1.35,15.051A19.965,19.965,0,0,0,231.83,925.4c6.986,2.006,14.706,1.186,21.639-.649a126.917,126.917,0,0,0,12.464-4.294c5.171-1.964,10.3-4.049,15.393-6.2,8.844-3.731,17.6-7.663,26.3-11.712a50.486,50.486,0,0,0-4.011,13.927c-.755,6.2-.055,12.586.775,18.741q.472,3.5,1.1,6.981c.086.472.154.957.266,1.424a43.379,43.379,0,0,0-.011,4.5l-.166,51.085q-.026,7.942-.052,15.884a1.732,1.732,0,0,0,1.708,1.708,1.807,1.807,0,0,0,1.708-2.047l.129-39.469.08-24.665.02-6.383a26.84,26.84,0,0,0-.668-4.54,101.038,101.038,0,0,1-1.735-19.462c.192-7.219,2.687-13.942,5.842-20.345a1.723,1.723,0,0,0-2.336-2.336c-17.051,8.012-34.28,15.857-52.068,22.106-11.928,4.191-31.592,7.269-36.739-8.208-1.443-4.342-1.566-8.914-1.693-13.505-.18-6.517.054-13.045.408-19.552.79-14.5,2.251-28.958,3.934-43.375q.965-8.275,2.054-16.534c.309-2.347.891-4.717,1.054-7.225l31.414-1.556,2.968-.147q-.238,9.531-.476,19.063l-.83,33.259q-.1,3.827-.191,7.654a1.724,1.724,0,0,0,2.569,1.475l15.765-8.827,27.362-15.32L314.491,842c4.506-2.523,9.736-3.879,14.766-4.89,11.377-2.287,23.116-.916,34.6-.3l6.268.334a14.116,14.116,0,0,0,1.489.083c2.848.867,5.926,1.278,8.833,1.906l28.76,6.211a25.271,25.271,0,0,1,4.094,1.046l10.081,4.016,26.783,10.669a18.6,18.6,0,0,1,7.963,5.617,40.972,40.972,0,0,1,6.023,11.023q2.13,5.271,4.289,10.528,7.429,18.125,15.006,36.19l.9,2.159a1.717,1.717,0,0,0,3.354-.455c.693-5.752.991-11.475,1.316-17.263l1.66-29.53.33-5.859,29.558-3.061,2.9-.3c.927,11.353,1.7,22.721,2.4,34.091,1.228,20.145,2.415,40.405,1.947,60.6-.222,9.569-.924,19.334-5.473,27.964a31.787,31.787,0,0,1-40.1,15.1c-7.243-3.038-12.185-9.92-16.515-16.17a266.178,266.178,0,0,1-17.064-29.09c-4.7-9.043-9.129-18.236-13.2-27.577q-.979-2.242-1.914-4.5c-.583-1.418-2.869-1.813-3.293,0l-6.671,28.569q-5.272,22.577-10.544,45.154c-.711,3.043-2.062,8.817-2.132,9.13-.4,1.778.142,2.539.979,2.757a1.913,1.913,0,0,0,2.2-1.352c2.579-9.433,4.271-18.289,6.495-27.812q5.272-22.577,10.544-45.154.629-2.692,1.257-5.383c2.982,6.891,6.2,13.685,9.535,20.406A336,336,0,0,0,459.1,987.859a131.292,131.292,0,0,0,8.987,12.651,40.045,40.045,0,0,0,8.413,8.134c6.123,4.114,14.061,5.486,21.307,4.669a35.05,35.05,0,0,0,22.167-11.175c7.27-8.063,10.174-18.72,10.917-29.336C531.516,963.825,531.374,954.784,531.165,945.794Z" transform="translate(-216.302 -806.059)" fill="#699af1"/>
                    </g>
                </g>
            </g>
            <g id="Group_740" data-name="Group 740" transform="translate(163.874 96.944)">
                <path id="Path_954" data-name="Path 954" d="M457.182,759.742c-1.9,1.141-3.7-.477-4.542-2.124a7.256,7.256,0,0,1-.3-5.99,2.146,2.146,0,0,1,3.959-.036,4.312,4.312,0,0,1,2.013,2.425C458.934,755.842,459.078,758.6,457.182,759.742Z" transform="translate(-425.448 -745.731)" fill="#699af1"/>
                <path id="Path_955" data-name="Path 955" d="M429.669,760.407a52.823,52.823,0,0,1,5.2-9.007c1.494-2.107,5-.09,3.49,2.035a51.692,51.692,0,0,0-4.932,8.415c-.679,1.484-2.192,3.816-.994,5.481a6.854,6.854,0,0,0,4.939,2.232c2.6-.1,2.552,3.937-.046,4.041-3.559.143-8.78-2.669-9.4-6.5C427.561,764.783,428.744,762.479,429.669,760.407Z" transform="translate(-419.456 -745.785)" fill="#699af1"/>
                <path id="Path_956" data-name="Path 956" d="M421.134,751.348a2.053,2.053,0,0,1-2.857,0,5.049,5.049,0,0,1-1.042-6.106,1.725,1.725,0,0,1,2.56-.748,1.664,1.664,0,0,1,1.388.676A4.525,4.525,0,0,1,421.134,751.348Z" transform="translate(-416.653 -744.21)" fill="#699af1"/>
                <path id="Path_957" data-name="Path 957" d="M436.029,791.5a20.858,20.858,0,0,0,13.227-8.925c1.438-2.157,4.936-.134,3.49,2.034a25.038,25.038,0,0,1-15.687,10.8C434.525,795.957,433.482,792.053,436.029,791.5Z" transform="translate(-421.13 -753.571)" fill="#699af1"/>
            </g>
        </g>
    </g>
</svg>
