<svg xmlns="http://www.w3.org/2000/svg" width="391.677" height="351.655" viewBox="0 0 391.677 351.655">
    <g id="Group_359" data-name="Group 359" transform="translate(-72 -137.079)">
        <g id="Group_332" data-name="Group 332" transform="translate(106.643 361.814)" opacity="0.1">
            <path id="Path_369" data-name="Path 369" d="M417.033,295.624v40.849c0,47.107-74.461,47.107-74.461,0,0,47.107-86.164,47.107-86.164,0,0,47.107-86.564,47.107-86.564,0,0,47.107-75.2,47.107-75.2,0V297.95c0-4.416,2.826-13.984,14.054-13.984H405.33C415.065,283.966,417.033,290.473,417.033,295.624Z" transform="translate(-94.643 -283.966)" fill="#fff"/>
        </g>
        <g id="Group_335" data-name="Group 335" transform="translate(154.03 270.416)" opacity="0.1">
            <path id="Path_372" data-name="Path 372" d="M353.216,237.241V248.4c0,47.592-72.376,47.592-72.376,0,0,47.592-82.48,47.592-82.48,0,0,47.592-72.745,47.592-72.745,0V237.476c0-8.332,3.7-13.248,13.315-13.248H340.138C349.088,224.228,353.216,230.027,353.216,237.241Z" transform="translate(-125.615 -224.228)" fill="#fff"/>
        </g>
        <g id="Group_337" data-name="Group 337" transform="translate(154.03 255.786)" opacity="0.15">
            <path id="Path_374" data-name="Path 374" d="M328.741,214.666h11.4c8.95,0,13.078,5.8,13.078,13.013v11.158c0,47.592-72.376,47.592-72.376,0,0,47.592-82.48,47.592-82.48,0,0,47.592-72.745,47.592-72.745,0,0,0,5.021,20.39,35.418,20.39s18.517-32.027,37.5-32.027,4.8,33.9,39.247,33.9,22.944-35.064,42.976-35.064,7.749,34.368,36.489,34.368,25.586-27.4,23.606-33.207S328.741,214.666,328.741,214.666Z" transform="translate(-125.615 -214.666)" fill="#fff"/>
        </g>
        <g id="Group_338" data-name="Group 338" transform="translate(196.358 208.283)">
            <rect id="Rectangle_234" data-name="Rectangle 234" width="27" height="47.474" fill="#fff"/>
        </g>
        <g id="Group_339" data-name="Group 339" transform="translate(195.2 137.079)">
            <path id="Path_375" data-name="Path 375" d="M167.189,193.944c-20.906,0-18.153-33.43,0-56.865C184.766,158.91,188.079,193.944,167.189,193.944Z" transform="translate(-152.524 -137.079)" fill="#fff"/>
        </g>
        <g id="Group_340" data-name="Group 340" transform="translate(254.427 208.283)">
            <rect id="Rectangle_235" data-name="Rectangle 235" width="27" height="47.474" fill="#fff"/>
        </g>
        <g id="Group_341" data-name="Group 341" transform="translate(253.269 137.079)">
            <path id="Path_376" data-name="Path 376" d="M205.143,193.944c-20.906,0-18.153-33.43,0-56.865C222.718,158.91,226.033,193.944,205.143,193.944Z" transform="translate(-190.478 -137.079)" fill="#fff"/>
        </g>
        <g id="Group_342" data-name="Group 342" transform="translate(312.496 208.283)">
            <rect id="Rectangle_236" data-name="Rectangle 236" width="27" height="47.474" fill="#fff"/>
        </g>
        <g id="Group_343" data-name="Group 343" transform="translate(196.358 242.196)" opacity="0.15">
            <rect id="Rectangle_237" data-name="Rectangle 237" width="27" height="13.56" fill="#fff"/>
        </g>
        <g id="Group_344" data-name="Group 344" transform="translate(254.427 242.196)" opacity="0.15">
            <rect id="Rectangle_238" data-name="Rectangle 238" width="27" height="13.56" fill="#fff"/>
        </g>
        <g id="Group_345" data-name="Group 345" transform="translate(312.496 242.196)" opacity="0.15">
            <rect id="Rectangle_239" data-name="Rectangle 239" width="27" height="13.56" fill="#fff"/>
        </g>
        <g id="Group_346" data-name="Group 346" transform="translate(311.339 137.079)">
            <path id="Path_377" data-name="Path 377" d="M243.1,193.944c-20.906,0-18.153-33.43,0-56.865C260.674,158.91,263.987,193.944,243.1,193.944Z" transform="translate(-228.432 -137.079)" fill="#fff"/>
        </g>
        <g id="Group_347" data-name="Group 347" transform="translate(100.524 389.392)">
            <path id="Path_378" data-name="Path 378" d="M419.153,401.333H96.763a6.12,6.12,0,0,1-6.12-6.12v-87.1a6.12,6.12,0,0,1,12.24,0c0,20.069,16.319,29.209,31.479,29.209s31.481-9.14,31.481-29.209a6.12,6.12,0,0,1,12.24,0c0,20.069,19.264,29.209,37.162,29.209s37.162-9.14,37.162-29.209a6.12,6.12,0,0,1,12.24,0c0,20.069,19.16,29.209,36.963,29.209s36.961-9.14,36.961-29.209a6.12,6.12,0,0,1,12.24,0c0,20.069,16.126,29.209,31.111,29.209s31.111-9.14,31.111-29.209a6.12,6.12,0,0,1,12.24,0v87.1A6.12,6.12,0,0,1,419.153,401.333Zm-316.27-12.24h310.15V337.825c-8.274,7.762-19.729,11.735-31.111,11.735-14.8,0-29.725-6.718-37.618-19.748-8.958,13.029-25.9,19.748-42.694,19.748-17.05,0-34.247-6.923-43.1-20.341-8.883,13.418-26.151,20.341-43.27,20.341-16.89,0-33.923-6.74-42.907-19.806-7.953,13.066-23.028,19.806-37.976,19.806-11.525,0-23.127-4.007-31.479-11.831Z" transform="translate(-90.643 -301.991)" fill="#fff"/>
        </g>
        <g id="Group_348" data-name="Group 348" transform="translate(100.524 336.885)">
            <path id="Path_379" data-name="Path 379" d="M381.922,367.748c-14.8,0-29.725-6.718-37.618-19.748-8.958,13.029-25.9,19.748-42.694,19.748-17.05,0-34.247-6.923-43.1-20.341-8.883,13.418-26.151,20.341-43.27,20.341-16.89,0-33.923-6.74-42.907-19.806-7.953,13.066-23.028,19.806-37.976,19.806-21.726,0-43.719-14.238-43.719-41.449V287.778c0-7.774,5.477-20.106,20.174-20.106H407.45c10.994,0,17.823,6.811,17.823,17.778V326.3C425.273,353.51,403.466,367.748,381.922,367.748ZM350.811,326.3c0,20.069,16.126,29.209,31.111,29.209s31.111-9.14,31.111-29.209V285.45c0-4.192-1.356-5.539-5.583-5.539H110.817c-7.713,0-7.935,7.059-7.935,7.866V326.3c0,20.069,16.319,29.209,31.479,29.209s31.481-9.14,31.481-29.209a6.12,6.12,0,0,1,12.24,0c0,20.069,19.264,29.209,37.162,29.209s37.162-9.14,37.162-29.209a6.12,6.12,0,0,1,12.24,0c0,20.069,19.16,29.209,36.963,29.209s36.961-9.14,36.961-29.209a6.12,6.12,0,0,1,12.24,0Z" transform="translate(-90.643 -267.672)" fill="#fff"/>
        </g>
        <g id="Group_349" data-name="Group 349" transform="translate(147.91 273.837)">
            <path id="Path_380" data-name="Path 380" d="M355.336,301.752h-227.6a6.12,6.12,0,0,1-6.12-6.12V232.584a6.12,6.12,0,1,1,12.24,0c0,20.318,15.682,29.573,30.252,29.573s30.254-9.255,30.254-29.573a6.12,6.12,0,1,1,12.24,0c0,20.318,18.2,29.573,35.119,29.573s35.119-9.255,35.119-29.573a6.12,6.12,0,1,1,12.24,0c0,20.318,15.586,29.573,30.069,29.573s30.067-9.255,30.067-29.573a6.12,6.12,0,1,1,12.24,0v63.048A6.12,6.12,0,0,1,355.336,301.752Zm-221.481-12.24H349.216V262.841A43.805,43.805,0,0,1,319.149,274.4c-14.333,0-28.785-6.672-36.533-19.617-8.674,12.945-24.852,19.617-40.9,19.617s-32.238-6.681-40.909-19.639c-7.78,12.957-22.3,19.639-36.7,19.639-11.045,0-22.16-3.929-30.252-11.606Z" transform="translate(-121.615 -226.464)" fill="#fff"/>
        </g>
        <g id="Group_350" data-name="Group 350" transform="translate(147.91 249.666)">
            <path id="Path_381" data-name="Path 381" d="M319.149,282.77c-14.333,0-28.785-6.672-36.533-19.617-8.674,12.945-24.852,19.617-40.9,19.617s-32.238-6.681-40.909-19.639c-7.78,12.957-22.3,19.639-36.7,19.639-21.115,0-42.492-14.363-42.492-41.813V230.034c0-12.309,7.084-19.368,19.435-19.368H342.257c11.484,0,19.2,7.688,19.2,19.132v11.158C361.456,268.406,340.172,282.77,319.149,282.77ZM289.08,240.957c0,20.318,15.586,29.573,30.069,29.573s30.067-9.255,30.067-29.573V229.8c0-6.178-3.972-6.893-6.958-6.893H141.05c-5.649,0-7.2,1.532-7.2,7.128v10.923c0,20.318,15.682,29.573,30.252,29.573s30.254-9.255,30.254-29.573a6.12,6.12,0,1,1,12.24,0c0,20.318,18.2,29.573,35.119,29.573s35.119-9.255,35.119-29.573a6.12,6.12,0,1,1,12.24,0Z" transform="translate(-121.615 -210.666)" fill="#fff"/>
        </g>
        <g id="Group_357" data-name="Group 357" transform="translate(72 476.494)">
            <path id="Path_388" data-name="Path 388" d="M457.557,371.161H78.12a6.12,6.12,0,1,1,0-12.24H457.557a6.12,6.12,0,1,1,0,12.24Z" transform="translate(-72 -358.921)" fill="#fff"/>
        </g>
        <g id="Group_358" data-name="Group 358" transform="translate(106.643 343.005)" opacity="0.15">
            <path id="Path_389" data-name="Path 389" d="M94.643,324.18s3.377,21.424,36.8,21.424,14.558-33.322,37.5-33.322,6.639,31.7,45.887,31.7S225.576,309.8,256.366,309.8s3.647,32.781,44.354,32.781,14.949-30.652,41.931-30.652,1.222,28.387,35.288,28.387,25.33-43.017,25.33-52.422-13.625-16.227-13.625-16.227H405.33c9.735,0,11.7,6.507,11.7,11.659V324.18c0,47.107-74.461,47.107-74.461,0,0,47.107-86.164,47.107-86.164,0,0,47.107-86.564,47.107-86.564,0,0,47.107-75.2,47.107-75.2,0Z" transform="translate(-94.643 -271.672)" fill="#fff"/>
        </g>
    </g>
</svg>
