<svg xmlns="http://www.w3.org/2000/svg" width="46.39" height="40" viewBox="0 0 46.39 40">
    <ellipse id="Ellipse_12" data-name="Ellipse 12" cx="20.5" cy="20" rx="20.5" ry="20" fill="#febf59"/>
    <path id="Union_1" data-name="Union 1" d="M12.569,23.95a3.1,3.1,0,0,1-1.042-.573L1.107,14.7a3.061,3.061,0,0,1-.382-4.334,3.114,3.114,0,0,1,4.366-.379L13.627,17.1l9.007-7.5L33.591.465c1.029-.857,2.755-.5,3.855.8s1.158,3.052.129,3.909L15.218,23.8a2.078,2.078,0,0,1-1.35.465A2.968,2.968,0,0,1,12.569,23.95Z" transform="translate(8.08 8.402)" fill="#272343"/>
</svg>
