<svg xmlns="http://www.w3.org/2000/svg" width="332.897" height="384" viewBox="0 0 332.897 384">
    <g id="Group_832" data-name="Group 832" transform="translate(-374.255 -348.75)">
        <path id="Path_1194" data-name="Path 1194" d="M396,732.75c-1.769-.574-3.6-1.009-5.3-1.746-10.262-4.455-16.225-12.31-16.285-23.48q-.342-64.293-.041-128.59c.051-14.314,11.32-25.217,25.682-25.378,10.5-.118,21-.177,31.49.014,11.342.207,19.492,5.589,23.936,16.084.919,2.168,1.946,3.031,4.108,2.379,6.307-1.9,13.093-2.917,18.806-5.949,17.123-9.086,32.442-20.687,44.289-36.29,8.723-11.488,12.772-24.188,8.935-38.674a38.562,38.562,0,0,1-1.111-7.021c-.75-10.206,2.2-18.783,11.318-24.4,10.1-6.221,20.365-6.346,30.4-.048,11.316,7.1,16.964,18.056,19.457,30.752,3.59,18.279-.274,35.775-6.469,52.863-2.789,7.693-6.277,15.132-9.6,23.042h4.139c25.118,0,50.236-.048,75.355.02,14.126.038,24.648,9.332,26.282,23.19.815,6.913-1.477,13.031-5.824,18.8,8.513,5.944,13.174,13.933,12.173,24.451-1,10.55-7.062,17.524-16.571,21.649,9.286,17.885.6,32.747-12.755,38.468.3.76.561,1.551.927,2.289,7.5,15.132.1,32.015-16.1,36.749a19.721,19.721,0,0,0-1.994.821h-129c-3.145-.622-6.287-1.257-9.435-1.863-9.179-1.765-17.242-6.119-25.46-10.348-5.653-2.91-12-4.483-18.085-6.531-1.794-.6-2.815.2-3.533,2.155A24.374,24.374,0,0,1,443.3,729.977c-2.189,1.084-4.531,1.858-6.8,2.773Zm61.684-31.722c11.349.446,20.889,4.927,30.046,10.483a58.8,58.8,0,0,0,30.712,8.38c39.24.178,78.481.1,117.721.059,7.694-.008,13.32-5.516,13.347-12.746.028-7.312-5.494-12.691-13.236-12.781-6-.069-12,.008-17.995-.032-3.514-.024-6.07-1.586-6.928-5.11-1.015-4.168,2.056-7.6,6.863-7.639,10.122-.076,20.245.027,30.367-.049,7.412-.056,12.948-4.717,13.65-11.288.834-7.816-4.672-14.121-12.791-14.251-10.245-.164-20.495,0-30.742-.082-4.774-.041-7.539-2.588-7.472-6.539.065-3.83,2.709-6.091,7.338-6.249,1.123-.038,2.249-.011,3.374-.011,13.121,0,26.244.069,39.365-.031,8.49-.066,14.041-5.6,13.759-13.418-.256-7.126-5.865-12.157-13.875-12.2-13.5-.075-26.993-.02-40.49-.028a33.357,33.357,0,0,1-3.744-.107,6.275,6.275,0,0,1-.74-12.4,19.519,19.519,0,0,1,4.093-.294c12.122-.037,24.246.08,36.365-.115,6.265-.1,10.93-4.64,11.919-10.917a12.515,12.515,0,0,0-8.177-13.64,21.4,21.4,0,0,0-6.627-.9q-43.676-.084-87.353-.041c-8.167,0-10.7-4.479-6.655-11.587,9.331-16.374,16.744-33.494,19.6-52.276,1.776-11.691,1.363-23.226-4.3-33.976-3.169-6.018-7.55-10.927-14.416-12.834-9.521-2.645-18.135,4.425-17.343,14.179a36.184,36.184,0,0,0,.836,5.927c4.431,17.484.333,33.231-10.136,47.4-13.932,18.861-32.044,32.893-53,43.025-7.157,3.46-15.315,4.852-23.332,7.285ZM444.75,643.067q0-31.116-.005-62.232c-.007-9.472-5.088-14.5-14.635-14.523-9.622-.019-19.244-.034-28.866.005-8.777.036-14.125,5.238-14.132,13.925q-.055,62.982,0,125.964c.009,8.482,5.38,13.714,13.913,13.756,9.622.047,19.244.021,28.867.008,9.981-.012,14.849-4.943,14.853-15.046Q444.759,674,444.75,643.067Z" fill="#699af1"/>
        <path id="Path_1195" data-name="Path 1195" d="M626.25,348.75c3.25,1.914,4.2,4.884,4.356,8.5a70.244,70.244,0,0,0,8.382,31.184c8.468,15.437,21.707,23.272,39.191,24.148a32.463,32.463,0,0,1,4.477.32,6.067,6.067,0,0,1,5.276,6.645c-.282,3.466-2.257,5.442-5.706,5.864-4.7.575-9.521.642-14.1,1.73-17.586,4.177-28.155,16.022-33.426,32.662-2.236,7.059-2.762,14.651-4.234,21.968-.426,2.115-.9,4.713-2.332,5.992-1.378,1.23-4.111,1.627-6.093,1.334-2.906-.43-3.978-2.958-4.428-5.79-1.174-7.374-1.763-14.945-3.9-22.04-6.874-22.8-21.618-34.1-45.336-35.656-5.754-.377-8.309-2.372-8.3-6.48.009-4.148,2.748-6.292,8.317-6.511,22.657-.891,38.427-12.7,45.035-34.479,2.083-6.862,2.977-14.122,3.964-21.263.474-3.43,1.279-6.282,4.359-8.127Zm-2.237,102.47A63.1,63.1,0,0,1,652.334,419.1C639,411.661,629.95,401.238,623.972,387.18a62.992,62.992,0,0,1-28.328,31.981C608.837,426.5,618.018,436.839,624.013,451.22Z" fill="#699af1"/>
        <path id="Path_1196" data-name="Path 1196" d="M451.258,527.952c-3.585.069-5.848-2.743-6.6-6.752-1.3-6.936-2.3-14.1-4.889-20.584-4.482-11.228-13.548-16.864-25.654-17.481-.5-.026-1-.02-1.5-.067-3.783-.355-6.118-2.707-6.177-6.209-.058-3.43,2.3-6.014,5.946-6.506,3.2-.432,6.52-.461,9.59-1.349,12.682-3.668,18.215-13.55,21.156-25.37a76.225,76.225,0,0,0,1.572-11.1c.407-4.222,2.714-6.917,6.323-6.987,3.727-.072,6.229,2.687,6.515,7.139a54.328,54.328,0,0,0,5.136,20.932c5.231,10.582,13.664,16.192,25.5,16.685a10.9,10.9,0,0,1,4.33.9,5.82,5.82,0,0,1,3.183,6.917,5.694,5.694,0,0,1-5.8,4.9c-20.8.17-29.124,15.56-31.627,31.238-.393,2.459-.513,4.962-.758,7.445C457.148,525.347,454.606,527.888,451.258,527.952Zm-.124-66.9-13.586,15.666,13.571,15.742,13.657-15.737Z" fill="#699af1"/>
        <path id="Path_1197" data-name="Path 1197" d="M505.544,403.2c-.1,3.767-11.814,15.7-15.649,15.936-4.365.274-8.634-4.829-6.166-8.195A66.282,66.282,0,0,1,497.2,397.317C500.617,394.751,505.663,398.747,505.544,403.2Z" fill="#699af1"/>
        <path id="Path_1198" data-name="Path 1198" d="M535.173,373.71c-1.22,2.24-1.824,4.064-3,5.37-2.83,3.139-5.866,6.1-8.939,9.01-2.993,2.831-6.779,2.895-9.343.357s-2.535-6.368.284-9.321c3.093-3.241,6.077-6.681,9.623-9.351a8.562,8.562,0,0,1,6.8-1.078C532.408,369.277,533.577,371.849,535.173,373.71Z" fill="#699af1"/>
        <path id="Path_1199" data-name="Path 1199" d="M534.654,413.354c-1.146,1.465-2.184,3.983-3.974,4.75-1.822.781-5.029.655-6.5-.507a91.483,91.483,0,0,1-10.938-10.728,6.058,6.058,0,0,1,.493-8.206c2.348-2.32,5.391-2.947,7.807-.9A152.967,152.967,0,0,1,533.2,409.354C533.892,410.083,533.972,411.395,534.654,413.354Z" fill="#699af1"/>
        <path id="Path_1200" data-name="Path 1200" d="M489.137,367.357c2.189,1.156,3.917,1.683,5.127,2.782,3.137,2.849,6.111,5.888,9.029,8.966,2.861,3.018,2.867,6.741.2,9.328a6.454,6.454,0,0,1-9.1-.228c-3.174-3-6.233-6.121-9.251-9.277-1.993-2.085-2.762-4.766-1.144-7.184C485.183,369.977,487.324,368.851,489.137,367.357Z" fill="#699af1"/>
        <path id="Path_1201" data-name="Path 1201" d="M668.88,495.776c0-2.246-.134-4.5.026-6.736.252-3.507,2.437-5.381,5.761-5.844,2.986-.416,6.265,1.712,6.525,4.891a90.845,90.845,0,0,1,.015,15.647c-.307,3.339-3.009,5.032-6.492,4.877a5.906,5.906,0,0,1-5.8-5.726C668.74,500.528,668.884,498.146,668.88,495.776Z" fill="#699af1"/>
        <path id="Path_1202" data-name="Path 1202" d="M656.15,521.415c-2.369,0-4.75.15-7.1-.035a5.969,5.969,0,0,1-5.771-5.77c-.22-3.365,1.764-6.362,5.215-6.623a100.741,100.741,0,0,1,14.924-.005,5.882,5.882,0,0,1,5.263,6.609c-.421,3.344-2.3,5.523-5.8,5.792C660.649,521.554,658.394,521.415,656.15,521.415Z" fill="#699af1"/>
        <path id="Path_1203" data-name="Path 1203" d="M694.327,521.433c-2.245,0-4.5.133-6.734-.035a6.007,6.007,0,0,1-5.932-6.007c-.11-3.353,1.957-6.22,5.443-6.46a105.4,105.4,0,0,1,14.568.009,6.113,6.113,0,0,1,5.47,6.51,6.253,6.253,0,0,1-6.08,5.956C698.828,521.566,696.573,521.436,694.327,521.433Z" fill="#699af1"/>
        <path id="Path_1204" data-name="Path 1204" d="M668.87,534.3c0-2.246-.116-4.5.027-6.734.224-3.489,2.284-5.446,5.663-5.906,3.1-.421,6.334,1.528,6.6,4.734a94.423,94.423,0,0,1-.036,16c-.291,3.257-3.43,5.033-6.652,4.611-3.239-.424-5.25-2.306-5.536-5.6-.2-2.352-.039-4.736-.039-7.1Z" fill="#699af1"/>
    </g>
</svg>
