<svg xmlns="http://www.w3.org/2000/svg" width="93.406" height="85.792" viewBox="0 0 93.406 85.792">
    <g id="Group_272" data-name="Group 272" transform="translate(-97.96 -85.779)">
        <g id="Group_269" data-name="Group 269" transform="translate(97.96 85.779)">
            <g id="Group_264" data-name="Group 264" transform="translate(2.938)">
                <path id="Path_288" data-name="Path 288" d="M123.665,92.615q.038,2.112.038,4.182v4.143q0,.319-.019.6c-.013.186-.019.385-.019.6q-.077,1.235-.153,2.469t-.191,2.469a7.153,7.153,0,0,1-.517,1.992,15.952,15.952,0,0,1-.939,1.872q-.5.836-1.053,1.673a6.047,6.047,0,0,1-1.322,1.434,5.342,5.342,0,0,1-1.8.936q-1,.3-1.992.5t-1.973.3a11.351,11.351,0,0,1-2.011.02,10.393,10.393,0,0,1-1.685-.219,8.524,8.524,0,0,1-1.59-.5,5.04,5.04,0,0,1-1.36-.856,4.021,4.021,0,0,1-1-1.374,11.549,11.549,0,0,1-.881-2.131q-.345-1.135-.575-2.211a11.382,11.382,0,0,1-.249-2.191,18.554,18.554,0,0,1,.1-2.231.385.385,0,0,1,.134-.219.371.371,0,0,1,.249-.139q1-.08,2.011-.08t2.011-.04q.344-.039.459.1a.8.8,0,0,1,.115.5,7.3,7.3,0,0,0,.345,2.47,9.627,9.627,0,0,0,1.072,2.27,2.609,2.609,0,0,0,2.682,1.115,5.517,5.517,0,0,0,2.548-1.115,5.033,5.033,0,0,0,1.7-2.19,7.227,7.227,0,0,0,.5-2.29q.076-1.255.153-2.37.076-1.195.077-2.41t-.038-2.37q0-.916-.038-1.832t-.076-1.832q-.078-1.035-.115-2.111t-.115-2.111q-.038-.717-.1-1.414t-.134-1.374a1.647,1.647,0,0,1,.1-.418q.1-.3.249-.3h1.916a7.421,7.421,0,0,0,1.187.06q.536-.02,1.3-.06a.525.525,0,0,1,.459.219,1.131,1.131,0,0,1,.192.5,5.737,5.737,0,0,1,.1.776q.019.379.057.777.076.8.115,1.573t.076,1.573a3.573,3.573,0,0,1,.019.637C123.671,92.19,123.665,92.4,123.665,92.615Z" transform="translate(-104.374 -85.857)" fill="#699af1"/>
                <path id="Path_289" data-name="Path 289" d="M174.642,114.6c.025.293-.007.478-.1.557a1.127,1.127,0,0,1-.594.159q-2.069.08-4.08.139t-4.08.1a15.11,15.11,0,0,1-1.551,0q-.785-.039-1.59-.04-.767.04-1.571.08t-1.609.04a14.332,14.332,0,0,1-2.145,0q-.614,0-.613-.677v-1.872c0-.292.006-.564.019-.817s.019-.418.019-.5c0-.026.006-.159.019-.4s.019-.371.019-.4q-.115-2.19-.211-4.182t-.172-4.182q-.077-1.673-.038-3.306t0-3.306q-.038-1.035-.1-2.031t-.134-2.031q-.038-.637-.057-1.275t-.019-1.314q-.038-.677-.057-1.334t-.1-1.334a.487.487,0,0,1,.076-.478.326.326,0,0,1,.23-.12,2.633,2.633,0,0,1,.728-.06c.255.014.511.02.766.02l1.609-.04,3.141-.04,6.934-.12q1.11-.039,2.164-.06t2.164.02a.435.435,0,0,1,.268.14.38.38,0,0,1,.153.259,8.31,8.31,0,0,1,.019.976,8.2,8.2,0,0,0,.019.976q0,.638.019,1.255t.057,1.255q.038.678-.651.677-.8-.039-1.609-.02t-1.609.02q-.919,0-1.839-.02a17.136,17.136,0,0,0-1.839.06q-1.149.08-2.317.18t-2.318.219a1.05,1.05,0,0,0-.326.12c-.09.054-.134.173-.134.358q.076.877.077,1.753v1.752c0,.239.006.478.019.717s.019.465.019.677q0,.4.421.4,1.072,0,2.126.04l2.126.08q.306,0,.632-.02t.632-.06a.663.663,0,0,1,.421.1c.077.066.1.219.077.458a8.088,8.088,0,0,0-.077,1.115q0,.558.038,1.115a5.481,5.481,0,0,0,.057.817q.058.379.134.817v.04q0,.638-.613.637-.958.08-1.9.12t-1.935.12q-.422.04-.862.1a6.416,6.416,0,0,1-.862.06q-.46,0-.421.438.115,1.514.23,2.987t.191,2.987q.038.319.191.4a.818.818,0,0,0,.383.08q1.073,0,2.126.02t2.126-.02q1.724,0,3.428-.02t3.428-.06a.565.565,0,0,1,.479.179.983.983,0,0,1,.172.458l.115,2.39q.038.438.038.836Z" transform="translate(-132.289 -85.779)" fill="#699af1"/>
                <path id="Path_290" data-name="Path 290" d="M213.542,102.676a.205.205,0,0,0,.23.159.624.624,0,0,0,.115-.159l.306-.956q.115-.438.23-.876t.191-.876q.191-.836.306-1.474a14.53,14.53,0,0,1,.345-1.434,1.152,1.152,0,0,1,.574-.737,3.043,3.043,0,0,1,.919-.3,6.224,6.224,0,0,1,.977-.08h.709a1.637,1.637,0,0,1,1.034.359,1.933,1.933,0,0,1,.651.916q.306,1.036.594,2.051t.594,2.052v.08a.149.149,0,0,0,.23.079c.025,0,.063-.026.115-.079a1.557,1.557,0,0,0,.1-.359,1.48,1.48,0,0,1,.1-.359q.46-2.469.958-4.9t.919-4.9q.191-1.035.326-2.071t.249-2.071a2.336,2.336,0,0,1,.191-.538c.077-.146.281-.219.613-.219q1-.039,1.666-.08a10.648,10.648,0,0,1,1.551.04q.536.08.651.279a.789.789,0,0,1,.038.558q-.115.677-.229,1.374t-.268,1.374q-.5,2.789-.939,5.557t-.939,5.516q-.46,2.51-.881,5.039t-.919,5.078q-.077.478-.134.976t-.134.976c-.051.293-.115.637-.191,1.036a10.307,10.307,0,0,1-.306,1.2.876.876,0,0,1-.4.557,1.455,1.455,0,0,1-.632.179,6.426,6.426,0,0,1-.728,0,3.922,3.922,0,0,0-.69.02,1.511,1.511,0,0,1-1.417-.558,1.641,1.641,0,0,1-.249-.478q-.1-.278-.172-.557-.307-1.115-.613-2.25t-.575-2.29q-.038-.12-.134-.578t-.211-.976a9.068,9.068,0,0,0-.249-.916q-.134-.4-.249-.4h-.191a4.93,4.93,0,0,1-.173.518,4.865,4.865,0,0,0-.172.518q-.46,1.713-.919,3.405a25.864,25.864,0,0,0-.69,3.485,2.159,2.159,0,0,1-.172.657.557.557,0,0,1-.479.338,14.147,14.147,0,0,1-1.475.08H212.01a1.168,1.168,0,0,1-.613-.14,1.224,1.224,0,0,1-.421-.577,20.429,20.429,0,0,1-1.034-3.147q-.383-1.593-.8-3.186-.46-1.673-.8-3.286t-.69-3.286q-.421-2.032-.823-3.983T206,94.073q-.229-1.155-.459-2.51t-.383-2.549q-.038-.239-.134-.757a7.036,7.036,0,0,1-.115-1.036,2.4,2.4,0,0,1,.115-.9.562.562,0,0,1,.594-.379,10.2,10.2,0,0,0,1.456.06q.766-.02,1.456-.06,1.111-.039,1.436.419a3.215,3.215,0,0,1,.479,1.255q.191,1.115.459,2.211t.46,2.211q.306,1.395.575,2.768t.613,2.729q.306,1.156.555,2.27a19.107,19.107,0,0,1,.364,2.271A3.445,3.445,0,0,0,213.542,102.676Z" transform="translate(-158.855 -85.841)" fill="#699af1"/>
            </g>
            <g id="Group_266" data-name="Group 266" transform="translate(2.904 1.583)">
                <g id="Group_265" data-name="Group 265">
                    <path id="Path_291" data-name="Path 291" d="M114.538,102.042a.362.362,0,0,1-.034.348.406.406,0,0,1-.343.134q-.24,0-.412-.009c-.115-.006-.226-.009-.335-.009h-.884a.47.47,0,0,1-.48-.357q-.137-.464-.275-.91t-.274-.91q-.206-.606-.36-1.231a.286.286,0,0,0-.292-.25l-.747-.071-.747-.071q-.361-.018-.721-.009t-.721.045a.211.211,0,0,0-.137.142q-.086.339-.172.669t-.171.669c-.046.167-.092.324-.137.473s-.1.306-.154.473q-.087.3-.163.553t-.163.553a.6.6,0,0,1-.12.205.266.266,0,0,1-.206.1h-.464c-.137,0-.272.006-.4.018s-.275.021-.429.027-.335.009-.54.009q-.138,0-.257-.187a.431.431,0,0,1-.086-.33,1.5,1.5,0,0,0,.069-.2,1.53,1.53,0,0,1,.051-.179q.206-.625.4-1.231t.386-1.231q.24-.7.464-1.392t.429-1.41q.188-.625.36-1.267t.36-1.285q.155-.553.309-1.1t.292-1.1q.1-.428.214-.847t.215-.848a2.089,2.089,0,0,1,.069-.214,1.016,1.016,0,0,0,.051-.232.347.347,0,0,1,.2-.259.685.685,0,0,1,.3-.08q.532-.018.944-.009t.961.009a.275.275,0,0,1,.257.169,2,2,0,0,1,.12.277q.1.374.206.642t.223.625q.1.339.223.669t.24.669q.291.893.566,1.767t.532,1.767q.155.482.266.973t.249.972q.155.572.326,1.124t.344,1.125q.171.535.3,1.008T114.538,102.042Zm-4.548-5.6q.24.018.284-.036c.028-.036.02-.136-.026-.3q-.12-.429-.231-.866t-.249-.865q-.069-.25-.137-.464t-.154-.464a.077.077,0,0,0-.094-.063.136.136,0,0,0-.112.081,3.237,3.237,0,0,0-.12.375c-.034.107-.069.22-.1.339l-.309,1.106q-.069.232-.129.464t-.129.482v.018c-.023.071.005.107.086.107l.36.018q.274.036.532.044T109.989,96.439Z" transform="translate(-104.3 -89.235)" fill="#699af1"/>
                </g>
            </g>
            <g id="Group_267" data-name="Group 267" transform="translate(76.033 13.506)">
                <path id="Path_292" data-name="Path 292" d="M267.48,126.044q.021.711-.011,1.4t-.032,1.4q0,.688.011,1.365t.032,1.366a.322.322,0,0,1-.139.278.539.539,0,0,1-.374.078q-.513.022-.939.011t-.9.011a4.758,4.758,0,0,1-.534.011.3.3,0,0,1-.235-.1.362.362,0,0,1-.054-.244q.01-.155.011-.444-.021-.466-.011-.922t.011-.922q0-.088-.011-.666t-.032-1.366q-.021-.788-.053-1.654t-.054-1.51q-.054-1.088-.054-2.165t-.053-2.188q-.021-1-.043-1.965t-.064-1.965q-.043-.555.494-.578a2.082,2.082,0,0,1,.494.011,1.729,1.729,0,0,0,.451.011h.462q.225,0,.463.022c.014,0,.075,0,.182-.011l.183-.011c.344.015.544.063.6.144a1.072,1.072,0,0,1,.065.566q-.043.844-.043,1.7t.021,1.7q.043,1.665.075,3.32T267.48,126.044Z" transform="translate(-263.953 -115.265)" fill="#699af1"/>
                <path id="Path_293" data-name="Path 293" d="M288.089,126.656a4.887,4.887,0,0,1,.022,1.643,3.456,3.456,0,0,1-.577,1.466,5.335,5.335,0,0,1-2.339,1.877,4.491,4.491,0,0,1-2.937.189,4.949,4.949,0,0,1-3.567-3.4,5.136,5.136,0,0,1-.224-1.266q-.032-.644-.054-1.266a.2.2,0,0,1,.107-.178.967.967,0,0,1,.342-.044q.533,0,1.068.011T281,125.7a.356.356,0,0,1,.31.133.659.659,0,0,1,.117.311,2.836,2.836,0,0,0,.331,1.31,3.322,3.322,0,0,0,.844,1.066,1.025,1.025,0,0,0,.523.222,2.235,2.235,0,0,0,.63,0,2.152,2.152,0,0,0,.609-.178,1.84,1.84,0,0,0,.481-.311.439.439,0,0,0,.1-.155,1.726,1.726,0,0,1,.075-.178,1.94,1.94,0,0,0,.139-.733,1.655,1.655,0,0,0-.139-.622,2.782,2.782,0,0,0-.331-.555,5.921,5.921,0,0,0-.438-.511,9.572,9.572,0,0,0-1.185-1.121q-.63-.5-1.292-.966-.491-.377-.95-.788t-.929-.811a2.34,2.34,0,0,1-.737-1.121,3.274,3.274,0,0,1-.1-1.321,3.862,3.862,0,0,1,.994-2.354,5.258,5.258,0,0,1,2.082-1.377,4.509,4.509,0,0,1,1.281-.3,3.691,3.691,0,0,1,1.3.122A4.346,4.346,0,0,1,287.064,117a2.962,2.962,0,0,1,.6,1.321,4.652,4.652,0,0,1,.075.71q.011.366.011.766c0,.119-.033.181-.1.189s-.132.019-.2.033h-1.965a.327.327,0,0,1-.214-.055.349.349,0,0,1-.064-.255,1.073,1.073,0,0,0-.117-.567,1.587,1.587,0,0,0-.363-.477,1.658,1.658,0,0,0-.513-.311,1.292,1.292,0,0,0-.566-.089,1.646,1.646,0,0,0-.961.522,1.309,1.309,0,0,0-.363,1.032,1.37,1.37,0,0,0,.416.933q.373.356.78.688.469.4.95.788l.971.788q.491.423.994.822a5.252,5.252,0,0,1,.907.933A4.176,4.176,0,0,1,288.089,126.656Z" transform="translate(-271.79 -115.299)" fill="#699af1"/>
            </g>
            <g id="Group_268" data-name="Group 268" transform="translate(0 35.715)">
                <path id="Path_294" data-name="Path 294" d="M114.18,177.782a.608.608,0,0,0-.213.524.792.792,0,0,0,.213.523.588.588,0,0,0,.155.121,10.24,10.24,0,0,1,3.329,3.38,6.277,6.277,0,0,1,.987,2.5,5.473,5.473,0,0,1-.29,2.737,6.163,6.163,0,0,1-1.064,1.993,15.341,15.341,0,0,1-1.568,1.63,9.9,9.9,0,0,1-4.374,2.214q-1.123.242-2.245.4a15.757,15.757,0,0,1-2.245.161q-1.742-.04-3.407.081t-3.368.12a8.655,8.655,0,0,1-.89-.04q-.387-.04-.58-.6a2.488,2.488,0,0,1-.078-.866,4.873,4.873,0,0,0,0-.865q-.038-1.85-.174-3.662t-.213-3.663q-.04-2.052-.019-4.085t.019-4.085q.038-.966.058-1.911t-.019-2.073q0-1.288-.077-2.576T98,167.156q-.038-.643-.019-1.288t-.019-1.288a.842.842,0,0,1,.1-.463.467.467,0,0,1,.406-.141q1.859.041,3.716.04t3.716.04q.774,0,1.529-.02t1.529.02a9.361,9.361,0,0,1,2.768.563,6.871,6.871,0,0,1,2.381,1.529,15.76,15.76,0,0,1,1.219,1.248,5.549,5.549,0,0,1,.91,1.449,6.4,6.4,0,0,1,.5,1.992q.078.987.078,2.033a4.987,4.987,0,0,1-.213,1.489,4.924,4.924,0,0,1-.6,1.267,9.936,9.936,0,0,1-.852,1.107Q114.682,177.259,114.18,177.782Zm-10.026-2.857V175q.117,1.248,1.433.966c.232-.053.49-.107.774-.161s.542-.107.774-.161q.541-.16.968-.3a4.985,4.985,0,0,0,.736-.3,2.022,2.022,0,0,0,.7-.523,2.533,2.533,0,0,0,.426-.725,4.935,4.935,0,0,0,.31-1.891,1.956,1.956,0,0,0-.542-1.167,4.428,4.428,0,0,0-1.045-.805,5.913,5.913,0,0,0-1.877-.644q-.987-.16-1.994-.282c-.284-.026-.464,0-.542.081a.643.643,0,0,0-.116.443q.038,1.369.02,2.717T104.153,174.924Zm1.007,6.238a.763.763,0,0,0-.562.141.835.835,0,0,0-.329.5v2.777q0,.926.019,1.872t.02,1.872q0,.6.542.563,1.006-.121,2.052-.221a20.4,20.4,0,0,0,2.052-.3,2.764,2.764,0,0,0,1.645-.926,2.812,2.812,0,0,0,.832-1.65,2.067,2.067,0,0,0-.271-1.328,7.884,7.884,0,0,0-.813-1.086,5.051,5.051,0,0,0-1.78-1.268,12.343,12.343,0,0,0-2.091-.664q-.31-.08-.639-.141T105.16,181.163Z" transform="translate(-97.96 -163.873)" fill="#ef91dc"/>
                <path id="Path_295" data-name="Path 295" d="M214.333,183.254q-.232-.322-.5-.081a.446.446,0,0,0-.155.282,2.108,2.108,0,0,0-.038.4v2.536q.038,2.052,0,4.105,0,.765-.058,1.489t-.136,1.449a1.124,1.124,0,0,1-.174.3c-.091.121-.174.181-.251.181q-1.859.121-3.755.12-.891,0-.89-1.127.078-.966.116-1.932t0-1.932q0-1.932-.039-3.823t-.077-3.824l-.116-5.312a10.778,10.778,0,0,1,.019-1.449,7.811,7.811,0,0,0-.019-1.449q-.039-1.046-.1-1.992t-.116-1.872q-.058-.925-.1-1.872t-.039-1.993a1.2,1.2,0,0,1,.155-.624,1.564,1.564,0,0,1,.387-.442,2.17,2.17,0,0,1,.464-.282,1,1,0,0,1,.349-.1l.89-.08.929-.081a24.418,24.418,0,0,1,2.613-.1q1.3.021,2.613.1.774.041,1.567.141t1.607.181a10.7,10.7,0,0,1,3.62,1.087,8.429,8.429,0,0,1,2.883,2.5,4.73,4.73,0,0,1,1.007,2.475,6.48,6.48,0,0,1-.349,2.676,10.094,10.094,0,0,1-.774,1.751,6.236,6.236,0,0,1-1.2,1.509q-.62.564-1.277,1.087a3.789,3.789,0,0,1-1.509.724q-.891.2-1.762.423t-1.761.382q-.658.12-.348.684.618.927,1.2,1.892t1.2,1.892l.852,1.207.852,1.207q1.123,1.651,2.207,3.26t2.167,3.26q.309.4.194.664t-.581.261q-1.239.082-2.516.1t-2.516.06a.946.946,0,0,1-.426-.241q-.891-1.288-1.8-2.6t-1.761-2.636q-.464-.684-.89-1.388t-.852-1.389q-.194-.362-.445-.845A8.524,8.524,0,0,0,214.333,183.254Zm-1.123-12.718q0,.362.077,1.288t.077,1.932a1.226,1.226,0,0,0,.155.745q.155.181.813.141,1.277-.08,2.555-.282t2.516-.523q.658-.2,1.258-.443a2.4,2.4,0,0,0,1.026-.8,2.057,2.057,0,0,0,.329-.825,2.762,2.762,0,0,0,0-1.026,2.623,2.623,0,0,0-.368-.946,1.4,1.4,0,0,0-.736-.584,14.6,14.6,0,0,0-2.768-.584,24.082,24.082,0,0,0-3.039-.1c-.439,0-.781.007-1.026.02a.942.942,0,0,0-.561.181.894.894,0,0,0-.251.584A9.656,9.656,0,0,0,213.21,170.536Z" transform="translate(-157.546 -163.751)" fill="#ef91dc"/>
                <path id="Path_296" data-name="Path 296" d="M278.02,192.188v.664a2.846,2.846,0,0,1-.077.664,1.412,1.412,0,0,1-.116.422.425.425,0,0,1-.426.3,7.946,7.946,0,0,1-1.49.02,11.15,11.15,0,0,0-1.49-.02,3.883,3.883,0,0,1-.677.02q-.33-.021-.639-.02a.9.9,0,0,1-.658-.282,1.4,1.4,0,0,1-.464-.563q-.232-.563-.464-1.107t-.5-1.107q-.581-1.086-1.181-2.173t-1.18-2.173q-1.007-1.811-1.974-3.582t-1.975-3.582a7.836,7.836,0,0,0-.426-.7,7.968,7.968,0,0,1-.465-.785q0,.685-.019,1.308t.019,1.228q.038,2.013.077,3.964t.077,3.964q0,1.167-.019,2.314t-.058,2.314v.081a.838.838,0,0,1-.271.624.783.783,0,0,1-.658.221,13.86,13.86,0,0,0-1.955.06,4.645,4.645,0,0,1-1.955-.221,1.32,1.32,0,0,1-.619-.362,1.233,1.233,0,0,1-.155-.724q-.038-.925-.019-1.872t-.019-1.872q-.078-1.046-.058-2.053t.1-2.013q.078-1.529.039-3.059t-.077-3.059q0-.925.019-1.871a18.008,18.008,0,0,0-.058-1.872q-.078-1.851-.154-3.663t-.155-3.663q-.039-.8-.039-1.65v-1.65q0-.684.968-.6.929.041,1.877.1t1.878.1a.6.6,0,0,1,.407.121.816.816,0,0,1,.213.322q.271.6.5,1.207a12.42,12.42,0,0,0,.542,1.207q.619,1.288,1.258,2.576t1.3,2.576q.5.966.987,1.952t1.026,1.952q.619,1.086,1.258,2.133t1.3,2.093a5.348,5.348,0,0,1,.329.543,4.846,4.846,0,0,0,.329.543h.116v-.523q-.038-2.133-.058-4.226t-.1-4.266q0-.845-.058-1.69t-.1-1.691q-.038-1.087-.058-2.194t-.058-2.193c0-.215.058-.349.174-.4a.961.961,0,0,1,.407-.081q.541,0,1.064.02t1.065.02h2.439q.425,0,.426.483,0,1.046.02,2.093t.058,2.093q.038,1.207.058,2.415t.1,2.415q.078,2.013.136,3.964t.1,3.964q.077,1.409.077,2.8t.039,2.8q.038,1.248.077,2.455T278.02,192.188Z" transform="translate(-184.614 -163.911)" fill="#ef91dc"/>
            </g>
        </g>
        <g id="Group_271" data-name="Group 271" transform="translate(121.023 121.383)">
            <g id="Group_270" data-name="Group 270" transform="translate(0 0)">
                <path id="Path_297" data-name="Path 297" d="M161.358,197.822l-7.491-1.162a.987.987,0,0,1-.755-.6,1.053,1.053,0,0,1,.093-.985l1.905-2.871c-4.83-2.533-7.574-8.861-6.605-15.609,1.171-8.161,7.422-13.979,13.933-12.969s10.856,8.472,9.685,16.633c-.969,6.748-5.37,11.968-10.7,12.924l1.016,3.324a1.053,1.053,0,0,1-.188.971A.962.962,0,0,1,161.358,197.822Zm-5.644-2.939,4.377.679-.9-2.949a1.052,1.052,0,0,1,.129-.891.972.972,0,0,1,.757-.437c4.95-.256,9.2-5.021,10.106-11.331,1.011-7.048-2.592-13.469-8.033-14.314s-10.691,4.2-11.7,11.252c-.906,6.309,1.821,12.157,6.483,13.9a1,1,0,0,1,.6.648,1.054,1.054,0,0,1-.126.891Z" transform="translate(-148.311 -163.509)" fill="#ef91dc"/>
            </g>
            <path id="Path_298" data-name="Path 298" d="M163.813,251.508a.966.966,0,0,1-.576-.317,1.05,1.05,0,0,1,.056-1.442c5.836-5.6,4.041-8.263,1.769-11.637l-.172-.257c-1.813-2.7-.456-4.582.3-4.533.541.035.145-.163.564.2s1.894.1,1.552.538c-.085.109-2.21.537-.8,2.632l.171.254c2.368,3.516,5.051,7.5-2.045,14.308A.954.954,0,0,1,163.813,251.508Z" transform="translate(-156.26 -201.332)" fill="#ef91dc"/>
            <path id="Path_299" data-name="Path 299" d="M169.743,211.125l-.187-.032a1.017,1.017,0,0,1-.8-1.18.989.989,0,0,1,1.135-.83l.135.022c4.218.655,5.748-4.3,5.811-4.509a.975.975,0,0,1,1.226-.674,1.027,1.027,0,0,1,.651,1.272C177.015,207.587,174.453,211.857,169.743,211.125Z" transform="translate(-159.384 -185.387)" fill="#ef91dc"/>
        </g>
    </g>
</svg>
