<svg xmlns="http://www.w3.org/2000/svg" width="116.198" height="117.683" viewBox="0 0 116.198 117.683">
    <g id="Group_609" data-name="Group 609" transform="translate(-449.176 -734.01)">
        <path id="Path_665" data-name="Path 665" d="M524.258,776.711l-8.3,33.875a14.911,14.911,0,1,1-28.964-7.1l8.3-33.874Z" transform="translate(-20.772 -19.773)" fill="none" stroke="#699af1" stroke-linecap="round" stroke-linejoin="round" stroke-width="3"/>
        <path id="Path_666" data-name="Path 666" d="M451.275,965.17c3.016-2.249,10.749-2.5,18.123-.688s14.114,5.6,15.751,8.99" transform="translate(0 -133.747)" fill="none" stroke="#699af1" stroke-linecap="round" stroke-linejoin="round" stroke-width="3"/>
        <line id="Line_7" data-name="Line 7" x1="7.71" y2="28.963" transform="translate(469.905 800.695)" fill="none" stroke="#699af1" stroke-linecap="round" stroke-linejoin="round" stroke-width="3"/>
        <path id="Path_667" data-name="Path 667" d="M596.566,806.98l8.3,33.874a14.911,14.911,0,1,0,28.964-7.1l-8.3-33.874Z" transform="translate(-85.502 -37.586)" fill="none" stroke="#699af1" stroke-linecap="round" stroke-linejoin="round" stroke-width="3"/>
        <path id="Path_668" data-name="Path 668" d="M675,989.386c-3.016-2.249-10.749-2.5-18.123-.688s-14.114,5.6-15.751,8.99" transform="translate(-111.724 -147.997)" fill="none" stroke="#699af1" stroke-linecap="round" stroke-linejoin="round" stroke-width="3"/>
        <line id="Line_8" data-name="Line 8" x2="7.71" y2="26.472" transform="translate(536.935 813.151)" fill="none" stroke="#699af1" stroke-linecap="round" stroke-linejoin="round" stroke-width="3"/>
        <line id="Line_9" data-name="Line 9" x1="24.912" transform="translate(468.861 770.89)" fill="none" stroke="#699af1" stroke-linecap="round" stroke-linejoin="round" stroke-width="3"/>
        <line id="Line_10" data-name="Line 10" x1="22.421" transform="translate(516.194 785.837)" fill="none" stroke="#699af1" stroke-linecap="round" stroke-linejoin="round" stroke-width="3"/>
        <line id="Line_11" data-name="Line 11" x1="6.116" y1="12.696" transform="translate(503.202 736.013)" fill="none" stroke="#699af1" stroke-linecap="round" stroke-linejoin="round" stroke-width="3"/>
        <line id="Line_12" data-name="Line 12" y1="6.116" x2="12.696" transform="translate(523.428 747.526)" fill="none" stroke="#699af1" stroke-linecap="round" stroke-linejoin="round" stroke-width="3"/>
        <line id="Line_13" data-name="Line 13" y1="11.758" x2="4.112" transform="translate(517.196 737.066)" fill="none" stroke="#699af1" stroke-linecap="round" stroke-linejoin="round" stroke-width="3"/>
    </g>
</svg>
