<svg xmlns="http://www.w3.org/2000/svg" width="117.577" height="117.563" viewBox="0 0 117.577 117.563">
    <g id="Group_610" data-name="Group 610" transform="translate(-231.952 -220.51)">
        <path id="Path_669" data-name="Path 669" d="M477.852,333.218a10.483,10.483,0,1,1,10.483-10.483A10.5,10.5,0,0,1,477.852,333.218Zm0-18.346a7.862,7.862,0,1,0,7.862,7.862A7.871,7.871,0,0,0,477.852,314.873Z" transform="translate(-184.002 -71.706)" fill="#699af1"/>
        <path id="Path_670" data-name="Path 670" d="M305.639,241.476a10.483,10.483,0,1,1,10.483-10.483A10.495,10.495,0,0,1,305.639,241.476Zm0-18.346a7.862,7.862,0,1,0,7.863,7.862A7.871,7.871,0,0,0,305.639,223.131Z" transform="translate(-49.4 0)" fill="#699af1"/>
        <path id="Path_671" data-name="Path 671" d="M520.8,635.887a5.7,5.7,0,1,1,5.7-5.7A5.7,5.7,0,0,1,520.8,635.887Zm0-8.771a3.075,3.075,0,1,0,3.075,3.075A3.078,3.078,0,0,0,520.8,627.116Z" transform="translate(-221.311 -315.755)" fill="#699af1"/>
        <path id="Path_672" data-name="Path 672" d="M456.593,589.618a23.65,23.65,0,1,1,23.637-23.637A23.664,23.664,0,0,1,456.593,589.618Zm0-44.653a21,21,0,1,0,8.563,1.818A21.04,21.04,0,0,0,456.593,544.965Z" transform="translate(-157.105 -251.545)" fill="#699af1"/>
        <path id="Path_673" data-name="Path 673" d="M465.411,453.736a1.311,1.311,0,0,1-1.3-1.163l-3.465-30.6a1.31,1.31,0,0,1,2.6-.3l3.465,30.6a1.31,1.31,0,0,1-1.154,1.45A1.328,1.328,0,0,1,465.411,453.736Z" transform="translate(-178.74 -156.322)" fill="#699af1"/>
        <path id="Path_674" data-name="Path 674" d="M318.274,378.2a10.26,10.26,0,0,1-7.6-3.374l-9.438-10.434a1.31,1.31,0,0,1,1.944-1.758l9.438,10.435a7.638,7.638,0,0,0,5.658,2.511h.047l13.645-.085h.008a1.31,1.31,0,0,1,.008,2.621l-13.644.085Z" transform="translate(-53.886 -110.745)" fill="#699af1"/>
        <path id="Path_675" data-name="Path 675" d="M496.834,449.691a1.311,1.311,0,0,1-1.3-1.143l-3.04-23.53c0-.032-.007-.064-.009-.1-.153-2.8,2.5-5.144,6.044-5.338l.982-.054c3.518-.191,6.4,1.823,6.586,4.6l3.106,23.908a1.31,1.31,0,1,1-2.6.337L503.5,424.419c0-.032-.007-.065-.009-.1-.07-1.288-1.825-2.286-3.829-2.174l-.982.054c-1.984.109-3.606,1.266-3.572,2.538l3.033,23.475A1.311,1.311,0,0,1,497,449.681,1.352,1.352,0,0,1,496.834,449.691Z" transform="translate(-203.629 -155.544)" fill="#699af1"/>
        <path id="Path_676" data-name="Path 676" d="M593.7,577.465h-.96c-4.227,0-6.059-5.331-6.134-5.558l-4.3-12.82a2.361,2.361,0,0,0-2.241-1.613h-5.9a1.31,1.31,0,1,1,0-2.621h5.9a4.98,4.98,0,0,1,4.726,3.4l4.3,12.82c.012.036,1.345,3.769,3.649,3.769h.96a3.315,3.315,0,0,0,3.126-4.418l-7.2-20.4a6.267,6.267,0,0,0-5.9-4.176h-.005l-24.928.021h0a1.31,1.31,0,0,1,0-2.621l24.928-.021h.008a8.891,8.891,0,0,1,8.373,5.925l7.2,20.4a5.936,5.936,0,0,1-5.6,7.911Z" transform="translate(-254.439 -252.24)" fill="#699af1"/>
        <path id="Path_677" data-name="Path 677" d="M264.5,432.029c-5.057,0-6.636-4.385-6.764-6.7q0-.039,0-.078l.086-19.82a15.836,15.836,0,0,0-1.028-5.693l-1.611-4.257-.41,7.165a13.846,13.846,0,0,1-1.193,4.891l-9.025,20.136a6.386,6.386,0,0,1-5.673,3.9,7.342,7.342,0,0,1-2.761-.578c-4.689-1.9-4.509-6.552-3.759-8.75.008-.025.018-.05.028-.074l8.127-19.825a15.879,15.879,0,0,0,1.108-4.437l4.726-51.3a6.416,6.416,0,0,1,7.007-5.8l4.054.392a6.45,6.45,0,0,1,5.78,6.879l-.257,3.339a1.31,1.31,0,0,1-2.613-.2l.257-3.339a3.815,3.815,0,0,0-3.419-4.069l-4.054-.392a3.8,3.8,0,0,0-4.145,3.43l-2.41,26.168,13.366,0a1.311,1.311,0,0,1,1.214.816l8.652,21.215a18.426,18.426,0,0,1,1.371,7.052l-.077,23.645c0,.008,0,.016,0,.024A6.27,6.27,0,0,1,264.5,432.029Zm-4.145-6.816c.042.553.459,4.2,4.145,4.2a3.521,3.521,0,0,0,3.373-1.734,4.865,4.865,0,0,0,.58-1.964l.077-23.622a15.815,15.815,0,0,0-1.177-6.054l-8.32-20.4-12.726,0-2.075,22.522a18.514,18.514,0,0,1-1.292,5.18l-8.109,19.781c-.169.529-1.146,4.062,2.27,5.444a3.522,3.522,0,0,0,3.777-.343,4.861,4.861,0,0,0,1.278-1.613l9.03-20.146a11.235,11.235,0,0,0,.968-3.969l.762-13.32a1.31,1.31,0,0,1,2.534-.389l3.792,10.024a18.446,18.446,0,0,1,1.2,6.632Z" transform="translate(0 -94.004)" fill="#699af1"/>
        <path id="Path_678" data-name="Path 678" d="M698.722,718.48H681.705a1.31,1.31,0,0,1,0-2.621h17.017a1.31,1.31,0,0,1,0,2.621Z" transform="translate(-350.503 -387.165)" fill="#699af1"/>
        <path id="Path_679" data-name="Path 679" d="M354.28,459.533l-.083,0a1.31,1.31,0,0,1-1.227-1.389l.547-8.789a1.31,1.31,0,0,1,2.616.163l-.547,8.789A1.311,1.311,0,0,1,354.28,459.533Z" transform="translate(-94.586 -177.903)" fill="#699af1"/>
    </g>
</svg>
